// Created by Crowbar 0.74
version 1
nodes
  0 "NMRiH_FPS_Arms_Control_World" -1
  1 "NMRiH_FPS_Arms_Control_Root" 0
  2 "NMRiH_FPS_Arms_Control_RightCollar-Brk" 1
  3 "NMRiH_FPS_Arms_Control_RightCollar" 2
  4 "NMRiH_FPS_Arms_Control_RightShoulder" 3
  5 "NMRiH_FPS_Arms_Control_RightElbow" 4
  6 "NMRiH_FPS_Arms_Control_RightElbowTwist1" 5
  7 "NMRiH_FPS_Arms_Control_RightElbowTwist2" 5
  8 "NMRiH_FPS_Arms_Control_RightElbowTwist3" 5
  9 "NMRiH_FPS_Arms_Control_LeftCollar-Brk" 1
  10 "NMRiH_FPS_Arms_Control_LeftCollar" 9
  11 "NMRiH_FPS_Arms_Control_LeftShoulder" 10
  12 "NMRiH_FPS_Arms_Control_LeftElbow" 11
  13 "NMRiH_FPS_Arms_Control_LeftElbowTwist1" 12
  14 "NMRiH_FPS_Arms_Control_LeftElbowTwist2" 12
  15 "NMRiH_FPS_Arms_Control_LeftElbowTwist3" 12
  16 "camera_bone" 0
  17 "SphereGizmo01" -1
  18 "NMRiH_FPS_Arms_Control_LeftWrist" 17
  19 "NMRiH_FPS_Arms_Control_PSNULL47" 18
  20 "Thumb1" 19
  21 "Thumb2" 20
  22 "Thumb3" 21
  23 "Index1" 19
  24 "Index2" 23
  25 "Index3" 24
  26 "Middle1" 19
  27 "Middle2" 26
  28 "Middle3" 27
  29 "Ring1" 19
  30 "Ring2" 29
  31 "Ring3" 30
  32 "Pinky1" 19
  33 "Pinky2" 32
  34 "Pinky3" 33
  35 "SphereGizmo02" -1
  36 "NMRiH_FPS_Arms_Control_RightWrist" 35
  37 "NMRiH_FPS_Arms_Control_PSNULL20" 36
  38 "Thumb04" 37
  39 "Thumb05" 38
  40 "Thumb06" 39
  41 "Index06" 37
  42 "Index04" 41
  43 "Index05" 42
  44 "Middle06" 37
  45 "Middle04" 44
  46 "Middle05" 45
  47 "Pinky04" 37
  48 "Pinky05" 47
  49 "Pinky06" 48
  50 "Ring06" 37
  51 "Ring04" 50
  52 "Ring05" 51
  53 "ValveBiped.Bip01_Spine4" 1
  54 "ValveBiped.Bip01_L_Clavicle" -1
  55 "ValveBiped.Bip01_R_Clavicle" -1
  56 "ValveBiped.Bip01_L_UpperArm" 11
  57 "ValveBiped.Bip01_L_Forearm" 12
  58 "ValveBiped.Bip01_L_Hand" 18
  59 "ValveBiped.Bip01_L_Finger0" 20
  60 "ValveBiped.Bip01_L_Finger01" 21
  61 "ValveBiped.Bip01_L_Finger02" 22
  62 "ValveBiped.Bip01_L_Finger1" 23
  63 "ValveBiped.Bip01_L_Finger11" 24
  64 "ValveBiped.Bip01_L_Finger12" 25
  65 "ValveBiped.Bip01_L_Finger2" 26
  66 "ValveBiped.Bip01_L_Finger21" 27
  67 "ValveBiped.Bip01_L_Finger22" 28
  68 "ValveBiped.Bip01_L_Finger3" 29
  69 "ValveBiped.Bip01_L_Finger31" 30
  70 "ValveBiped.Bip01_L_Finger32" 31
  71 "ValveBiped.Bip01_L_Finger4" 32
  72 "ValveBiped.Bip01_L_Finger41" 33
  73 "ValveBiped.Bip01_L_Finger42" 34
  74 "ValveBiped.Bip01_R_UpperArm" 4
  75 "ValveBiped.Bip01_R_Forearm" 5
  76 "ValveBiped.Bip01_R_Hand" 36
  77 "ValveBiped.Bip01_R_Finger0" 38
  78 "ValveBiped.Bip01_R_Finger01" 39
  79 "ValveBiped.Bip01_R_Finger02" 40
  80 "ValveBiped.Bip01_R_Finger1" 41
  81 "ValveBiped.Bip01_R_Finger11" 42
  82 "ValveBiped.Bip01_R_Finger12" 43
  83 "ValveBiped.Bip01_R_Finger2" 44
  84 "ValveBiped.Bip01_R_Finger21" 45
  85 "ValveBiped.Bip01_R_Finger22" 46
  86 "ValveBiped.Bip01_R_Finger3" 50
  87 "ValveBiped.Bip01_R_Finger31" 51
  88 "ValveBiped.Bip01_R_Finger32" 52
  89 "ValveBiped.Bip01_R_Finger4" 47
  90 "ValveBiped.Bip01_R_Finger41" 48
  91 "ValveBiped.Bip01_R_Finger42" 49
end
skeleton
  time 0
    0 0.000000 0.000000 0.000000 0.000000 0.000000 0.000000
    1 0.000000 2.709942 -10.591393 0.000000 -1.570796 1.570796
    2 3.500857 9.013945 -0.640573 0.000000 -1.570796 0.000000
    3 -2.289403 -1.496114 0.973094 0.000000 0.000000 0.000000
    4 4.409996 0.000005 -0.000003 0.130940 -0.093229 0.275618
    5 10.079981 -0.000003 -0.000001 -0.000002 -0.000003 -0.537314
    6 0.000000 -0.000001 0.000000 -0.208255 0.000005 0.000001
    7 3.359990 0.000014 -0.000007 -0.416518 0.000000 0.000003
    8 6.719987 0.000030 -0.000015 -0.624777 -0.000002 0.000001
    9 3.500862 -5.725745 -0.640568 0.000000 -1.570795 3.141592
    10 -2.186730 3.179637 -0.996149 0.000000 0.000000 0.000000
    11 4.409998 -0.000001 0.000004 -0.337182 0.183847 0.339603
    12 10.079982 0.000014 0.000025 0.000004 0.000046 -0.696740
    13 0.000001 0.000004 0.000000 0.254496 -0.000001 0.000010
    14 3.359994 0.000032 0.000015 0.508986 -0.000007 0.000004
    15 6.719987 0.000057 0.000028 0.763488 0.000003 0.000003
    16 0.000000 0.000000 0.000000 1.570796 0.000000 -3.141592
    17 9.390016 -18.432442 -8.868174 2.221349 0.037515 -1.678098
    18 -0.118055 -0.108981 0.513327 -0.000047 -0.086523 0.000009
    19 4.409994 -0.000012 0.000012 0.000000 0.000000 0.000000
    20 -3.422661 1.711283 0.470872 0.018364 -0.593174 -0.075895
    21 1.410028 0.000010 0.000007 0.000006 0.000009 -0.987481
    22 0.993011 -0.000001 0.000006 0.000001 -0.000006 -0.761963
    23 -1.022532 1.571291 -0.406268 0.562009 -1.088038 -0.422346
    24 1.337718 0.000005 0.000002 -3.141591 -1.497669 3.135755
    25 1.180473 -0.000093 -0.000003 2.322271 -1.447922 -2.264049
    26 -0.666712 0.565948 -0.425195 0.276535 -1.168921 -0.243380
    27 1.311736 0.000006 0.000004 -3.109347 -1.501840 3.110658
    28 1.132875 -0.000003 -0.000005 -2.277655 -1.482347 2.251198
    29 -0.835869 -0.375753 -0.250998 -0.232083 -1.169899 0.124274
    30 1.303124 0.000019 0.000004 2.990988 -1.546786 -2.976142
    31 1.094648 -0.000011 -0.000003 -0.062672 -1.544912 0.032719
    32 -1.144743 -1.304737 0.171518 -0.974001 -1.088390 0.663341
    33 1.052849 0.000000 -0.000004 3.124857 -1.425270 3.135795
    34 0.916342 -0.000031 0.000001 3.141553 -1.536954 -3.129942
    35 -7.775795 -18.287590 -8.942204 0.900063 -0.021850 -1.602976
    36 -0.117880 -0.102734 -0.180849 0.000013 0.017066 0.000000
    37 4.409983 -0.000034 0.000004 0.000000 0.000000 0.000000
    38 -3.459356 1.711287 -0.541797 0.125169 -0.669906 3.034105
    39 -1.410028 -0.000005 -0.000014 0.000004 0.000001 -0.911659
    40 -0.993008 0.000010 -0.000011 0.000012 -0.000006 -0.908928
    41 -1.077398 1.571280 0.162236 0.351673 -1.124156 2.999846
    42 -1.337713 0.000003 -0.000002 3.078234 -1.322288 -3.107495
    43 -1.180471 0.000072 0.000002 0.222669 -1.503459 -0.194074
    44 -0.719599 0.565946 0.238754 -0.061928 -1.418197 -3.057658
    45 -1.311414 -0.000009 -0.000267 0.002810 -1.315827 0.001501
    46 -1.132872 0.000005 -0.000066 3.139358 -1.176065 -3.092134
    47 -1.239075 -1.304744 -0.314278 -1.430303 -0.982760 -2.003829
    48 -1.052850 0.000005 -0.000004 2.863547 -1.535746 3.140028
    49 -0.916342 0.000033 0.000003 3.130054 -1.386235 -3.118064
    50 -0.900585 -0.375762 0.090056 -0.779868 -1.244725 -2.521915
    51 -1.303123 -0.000014 0.000008 -0.004350 -1.451231 -0.000909
    52 -1.094650 0.000007 0.000003 -2.577326 -1.476285 2.574417
    53 0.000000 0.000000 0.000000 0.000000 0.000000 0.000000
    54 0.000000 0.000000 0.000000 0.000000 0.000000 0.000000
    55 0.000000 0.000000 0.000000 0.000000 0.000000 0.000000
    56 -2.000000 0.000000 0.000000 -1.570796 0.000000 0.174533
    57 -1.500000 0.000002 0.000000 -1.570796 0.000000 0.000000
    58 0.000000 0.500000 0.000000 -1.570796 0.261799 0.000000
    59 -0.000001 0.000000 0.000000 -3.141593 0.174533 0.000000
    60 0.000000 0.000000 -0.000001 -3.141593 0.174533 0.174533
    61 0.000000 0.000000 0.000000 -3.141593 0.349066 -0.174533
    62 0.000000 0.000000 0.000000 -1.570796 0.000000 0.000000
    63 0.000000 0.000000 0.000000 -1.570796 0.000000 0.000000
    64 0.000000 0.000000 0.000000 -1.570796 0.000000 0.000000
    65 0.000000 0.000000 0.000002 -1.570796 0.000000 0.000000
    66 0.000000 0.000000 0.000000 -1.570796 0.000000 0.000000
    67 0.000000 0.000001 0.000000 -1.570796 0.000000 0.000000
    68 0.000000 0.000000 0.000000 -1.570796 0.000000 0.000000
    69 0.000000 0.000000 0.000000 -1.570796 0.000000 0.000000
    70 0.000000 0.000000 0.000000 -1.570796 0.000000 0.000000
    71 0.000000 0.000000 0.000000 -1.570796 0.000000 0.000000
    72 0.000000 0.000000 0.000000 -1.570796 0.000000 0.000000
    73 0.000000 0.000000 0.000000 -1.570796 0.000000 0.000000
    74 -2.000000 0.000000 0.000000 1.570796 0.000000 0.174533
    75 -1.500000 -0.000001 -0.250000 1.570796 0.000000 0.000000
    76 -1.000000 0.250000 0.500000 1.570796 0.000000 0.000000
    77 0.000000 0.000000 0.000000 2.094395 0.000000 -3.141593
    78 0.000000 0.000000 0.000000 2.094395 0.000000 -3.141593
    79 0.000000 -0.200001 -0.200000 1.745329 0.000000 -3.141593
    80 0.000000 -0.000001 -0.000002 1.570796 0.000000 3.141593
    81 0.000000 0.000000 0.000000 1.570796 0.000000 -3.141593
    82 0.000000 0.000000 -0.000002 1.570796 0.000000 -3.141593
    83 0.000000 0.000000 0.000000 1.570796 0.000000 3.141593
    84 -0.000002 0.000000 0.000000 1.570796 0.000000 3.141593
    85 0.000000 0.000000 0.000000 1.570796 0.000000 3.141593
    86 0.000000 0.000000 0.000000 1.570796 0.000000 3.141593
    87 0.000000 0.000000 0.000000 1.570796 0.000000 -3.141593
    88 0.000000 0.000000 0.000000 1.570796 0.000000 -3.141593
    89 0.000000 0.000000 0.000000 1.570796 0.000000 3.141593
    90 0.000000 0.000000 0.000000 1.570796 0.000000 -3.141593
    91 0.000000 0.000000 0.000000 1.570796 0.000000 -3.141593
end
triangles
  phy
    0 -19.512134 -18.400754 -10.382377 -0.631476 0.521631 -0.573706 0 0
    0 -19.313085 -18.667276 -10.903897 -0.541849 0.839388 -0.042748 0 0
    0 -18.333505 -18.941651 -10.391414 -0.001413 0.900728 -0.434382 0 0
  phy
    0 -19.512134 -18.400754 -10.382377 -0.631476 0.521631 -0.573706 0 0
    0 -18.333505 -18.941651 -10.391414 -0.001413 0.900728 -0.434382 0 0
    0 -18.388405 -18.479116 -9.816475 -0.108170 0.310674 -0.944341 0 0
  phy
    0 -18.652828 -17.663933 -9.797064 -0.414931 0.029430 -0.909377 0 0
    0 -19.512134 -18.400754 -10.382377 -0.631476 0.521631 -0.573706 0 0
    0 -18.388405 -18.479116 -9.816475 -0.108170 0.310674 -0.944341 0 0
  phy
    0 -19.512134 -18.400754 -10.382377 -0.631476 0.521631 -0.573706 0 0
    0 -18.652828 -17.663933 -9.797064 -0.414931 0.029430 -0.909377 0 0
    0 -19.833225 -17.649708 -10.448872 -0.700788 -0.095192 -0.706990 0 0
  phy
    0 -19.313085 -18.667276 -10.903897 -0.541849 0.839388 -0.042748 0 0
    0 -19.512134 -18.400754 -10.382377 -0.631476 0.521631 -0.573706 0 0
    0 -20.612420 -17.397151 -11.772064 -0.961544 -0.232269 -0.146578 0 0
  phy
    0 -19.512134 -18.400754 -10.382377 -0.631476 0.521631 -0.573706 0 0
    0 -19.833225 -17.649708 -10.448872 -0.700788 -0.095192 -0.706990 0 0
    0 -20.612420 -17.397151 -11.772064 -0.961544 -0.232269 -0.146578 0 0
  phy
    0 -19.313085 -18.667276 -10.903897 -0.541849 0.839388 -0.042748 0 0
    0 -19.457722 -18.499470 -12.081064 -0.422179 0.822364 0.381422 0 0
    0 -18.050713 -19.184315 -11.499036 0.015436 0.947487 0.319421 0 0
  phy
    0 -18.333505 -18.941651 -10.391414 -0.001413 0.900728 -0.434382 0 0
    0 -19.313085 -18.667276 -10.903897 -0.541849 0.839388 -0.042748 0 0
    0 -18.050713 -19.184315 -11.499036 0.015436 0.947487 0.319421 0 0
  phy
    0 -19.457722 -18.499470 -12.081064 -0.422179 0.822364 0.381422 0 0
    0 -19.313085 -18.667276 -10.903897 -0.541849 0.839388 -0.042748 0 0
    0 -20.612420 -17.397151 -11.772064 -0.961544 -0.232269 -0.146578 0 0
  phy
    0 11.348594 2.670949 -7.624698 0.082230 -0.711937 -0.697412 0 0
    0 -9.377006 2.241111 -6.804832 -0.048384 -0.575949 -0.816053 0 0
    0 10.986691 1.890464 -7.155895 0.151005 -0.225971 -0.962359 0 0
  phy
    0 10.986691 1.890464 -7.155895 0.151005 -0.225971 -0.962359 0 0
    0 -9.377006 2.241111 -6.804832 -0.048384 -0.575949 -0.816053 0 0
    0 -8.693243 1.579488 -6.571103 0.010174 -0.105052 -0.994415 0 0
  phy
    0 11.348594 2.670949 -7.624698 0.082230 -0.711937 -0.697412 0 0
    0 -10.402674 3.379084 -8.097818 -0.169873 -0.750851 -0.638252 0 0
    0 -9.377006 2.241111 -6.804832 -0.048384 -0.575949 -0.816053 0 0
  phy
    0 -9.377006 2.241111 -6.804832 -0.048384 -0.575949 -0.816053 0 0
    0 -11.293724 -0.208996 -7.068121 -0.523439 -0.265790 -0.809548 0 0
    0 -10.091010 -0.370502 -6.733025 -0.050204 0.132621 -0.989895 0 0
  phy
    0 -8.693243 1.579488 -6.571103 0.010174 -0.105052 -0.994415 0 0
    0 -9.377006 2.241111 -6.804832 -0.048384 -0.575949 -0.816053 0 0
    0 -10.091010 -0.370502 -6.733025 -0.050204 0.132621 -0.989895 0 0
  phy
    0 -9.377006 2.241111 -6.804832 -0.048384 -0.575949 -0.816053 0 0
    0 -10.402674 3.379084 -8.097818 -0.169873 -0.750851 -0.638252 0 0
    0 -11.293724 -0.208996 -7.068121 -0.523439 -0.265790 -0.809548 0 0
  phy
    0 16.465624 -5.171048 -15.522901 0.487022 0.272031 0.829945 0 0
    0 15.713502 -5.736221 -15.615824 0.026846 0.287749 0.957329 0 0
    0 15.576589 -5.139280 -15.782822 -0.015933 0.179179 0.983687 0 0
  phy
    0 15.576589 -5.139280 -15.782822 -0.015933 0.179179 0.983687 0 0
    0 16.264242 -4.494764 -15.713626 0.403778 -0.042467 0.913871 0 0
    0 16.465624 -5.171048 -15.522901 0.487022 0.272031 0.829945 0 0
  phy
    0 15.576589 -5.139280 -15.782822 -0.015933 0.179179 0.983687 0 0
    0 15.841908 -4.006828 -15.813352 -0.074033 -0.175207 0.981744 0 0
    0 16.264242 -4.494764 -15.713626 0.403778 -0.042467 0.913871 0 0
  phy
    0 15.102369 -4.734544 -15.771081 -0.071578 0.044170 0.996457 0 0
    0 15.841908 -4.006828 -15.813352 -0.074033 -0.175207 0.981744 0 0
    0 15.576589 -5.139280 -15.782822 -0.015933 0.179179 0.983687 0 0
  phy
    0 -19.854392 -17.853526 -12.635517 -0.085910 0.055720 0.994744 0 0
    0 15.102369 -4.734544 -15.771081 -0.071578 0.044170 0.996457 0 0
    0 15.576589 -5.139280 -15.782822 -0.015933 0.179179 0.983687 0 0
  phy
    0 15.713502 -5.736221 -15.615824 0.026846 0.287749 0.957329 0 0
    0 -18.228777 -18.107527 -12.607533 0.017522 0.331054 0.943449 0 0
    0 15.576589 -5.139280 -15.782822 -0.015933 0.179179 0.983687 0 0
  phy
    0 15.576589 -5.139280 -15.782822 -0.015933 0.179179 0.983687 0 0
    0 -18.228777 -18.107527 -12.607533 0.017522 0.331054 0.943449 0 0
    0 -19.854392 -17.853526 -12.635517 -0.085910 0.055720 0.994744 0 0
  phy
    0 17.673391 -4.653349 -14.392082 0.829437 -0.062395 0.555105 0 0
    0 18.099846 -4.770641 -13.655448 0.907972 0.228778 0.351065 0 0
    0 17.609873 -6.088931 -13.879801 0.797106 0.266773 0.541714 0 0
  phy
    0 18.099846 -4.770641 -13.655448 0.907972 0.228778 0.351065 0 0
    0 14.906830 -17.761624 -12.007739 0.140152 0.404538 0.903718 0 0
    0 17.609873 -6.088931 -13.879801 0.797106 0.266773 0.541714 0 0
  phy
    0 17.609873 -6.088931 -13.879801 0.797106 0.266773 0.541714 0 0
    0 17.071444 -4.942615 -15.083996 0.713764 0.260582 0.650106 0 0
    0 17.673391 -4.653349 -14.392082 0.829437 -0.062395 0.555105 0 0
  phy
    0 17.609873 -6.088931 -13.879801 0.797106 0.266773 0.541714 0 0
    0 14.906830 -17.761624 -12.007739 0.140152 0.404538 0.903718 0 0
    0 17.071444 -4.942615 -15.083996 0.713764 0.260582 0.650106 0 0
  phy
    0 13.582232 0.724832 -8.609404 0.702090 -0.439095 -0.560594 0 0
    0 11.348594 2.670949 -7.624698 0.082230 -0.711937 -0.697412 0 0
    0 12.667382 0.315808 -7.847398 0.490988 -0.032945 -0.870543 0 0
  phy
    0 12.667382 0.315808 -7.847398 0.490988 -0.032945 -0.870543 0 0
    0 11.348594 2.670949 -7.624698 0.082230 -0.711937 -0.697412 0 0
    0 10.986691 1.890464 -7.155895 0.151005 -0.225971 -0.962359 0 0
  phy
    0 11.348594 2.670949 -7.624698 0.082230 -0.711937 -0.697412 0 0
    0 11.509818 3.900537 -9.199785 0.199784 -0.847293 -0.492120 0 0
    0 -10.402674 3.379084 -8.097818 -0.169873 -0.750851 -0.638252 0 0
  phy
    0 13.582232 0.724832 -8.609404 0.702090 -0.439095 -0.560594 0 0
    0 11.509818 3.900537 -9.199785 0.199784 -0.847293 -0.492120 0 0
    0 11.348594 2.670949 -7.624698 0.082230 -0.711937 -0.697412 0 0
  phy
    0 -19.854392 -17.853526 -12.635517 -0.085910 0.055720 0.994744 0 0
    0 -19.457722 -18.499470 -12.081064 -0.422179 0.822364 0.381422 0 0
    0 -20.612420 -17.397151 -11.772064 -0.961544 -0.232269 -0.146578 0 0
  phy
    0 -18.050713 -19.184315 -11.499036 0.015436 0.947487 0.319421 0 0
    0 -19.457722 -18.499470 -12.081064 -0.422179 0.822364 0.381422 0 0
    0 -18.228777 -18.107527 -12.607533 0.017522 0.331054 0.943449 0 0
  phy
    0 -19.854392 -17.853526 -12.635517 -0.085910 0.055720 0.994744 0 0
    0 -18.228777 -18.107527 -12.607533 0.017522 0.331054 0.943449 0 0
    0 -19.457722 -18.499470 -12.081064 -0.422179 0.822364 0.381422 0 0
  phy
    0 -18.333505 -18.941651 -10.391414 -0.001413 0.900728 -0.434382 0 0
    0 14.037691 -17.687596 -8.767787 0.005463 0.763536 -0.645742 0 0
    0 -18.388405 -18.479116 -9.816475 -0.108170 0.310674 -0.944341 0 0
  phy
    0 14.037691 -17.687596 -8.767787 0.005463 0.763536 -0.645742 0 0
    0 -18.333505 -18.941651 -10.391414 -0.001413 0.900728 -0.434382 0 0
    0 13.564353 -18.382133 -9.969064 0.016980 0.962039 -0.272385 0 0
  phy
    0 -18.333505 -18.941651 -10.391414 -0.001413 0.900728 -0.434382 0 0
    0 -18.050713 -19.184315 -11.499036 0.015436 0.947487 0.319421 0 0
    0 13.564353 -18.382133 -9.969064 0.016980 0.962039 -0.272385 0 0
  phy
    0 14.287746 -18.212019 -9.685346 0.302553 0.950089 -0.076113 0 0
    0 13.627352 -18.365601 -10.915696 0.043795 0.963421 0.264389 0 0
    0 14.906830 -17.761624 -12.007739 0.140152 0.404538 0.903718 0 0
  phy
    0 14.831128 -17.993391 -9.563118 0.830154 0.239663 -0.503395 0 0
    0 14.287746 -18.212019 -9.685346 0.302553 0.950089 -0.076113 0 0
    0 14.906830 -17.761624 -12.007739 0.140152 0.404538 0.903718 0 0
  phy
    0 13.627352 -18.365601 -10.915696 0.043795 0.963421 0.264389 0 0
    0 14.287746 -18.212019 -9.685346 0.302553 0.950089 -0.076113 0 0
    0 13.564353 -18.382133 -9.969064 0.016980 0.962039 -0.272385 0 0
  phy
    0 14.037691 -17.687596 -8.767787 0.005463 0.763536 -0.645742 0 0
    0 14.287746 -18.212019 -9.685346 0.302553 0.950089 -0.076113 0 0
    0 14.831128 -17.993391 -9.563118 0.830154 0.239663 -0.503395 0 0
  phy
    0 14.287746 -18.212019 -9.685346 0.302553 0.950089 -0.076113 0 0
    0 14.037691 -17.687596 -8.767787 0.005463 0.763536 -0.645742 0 0
    0 13.564353 -18.382133 -9.969064 0.016980 0.962039 -0.272385 0 0
  phy
    0 -10.402674 3.379084 -8.097818 -0.169873 -0.750851 -0.638252 0 0
    0 11.509818 3.900537 -9.199785 0.199784 -0.847293 -0.492120 0 0
    0 -10.510607 3.858879 -9.115045 -0.333091 -0.910638 -0.244519 0 0
  phy
    0 -11.293724 -0.208996 -7.068121 -0.523439 -0.265790 -0.809548 0 0
    0 -10.402674 3.379084 -8.097818 -0.169873 -0.750851 -0.638252 0 0
    0 -15.937397 -5.374360 -8.627971 -0.777644 -0.290676 -0.557474 0 0
  phy
    0 -10.402674 3.379084 -8.097818 -0.169873 -0.750851 -0.638252 0 0
    0 -12.475764 0.818575 -8.909055 -0.781203 -0.480195 -0.398917 0 0
    0 -15.937397 -5.374360 -8.627971 -0.777644 -0.290676 -0.557474 0 0
  phy
    0 -10.402674 3.379084 -8.097818 -0.169873 -0.750851 -0.638252 0 0
    0 -10.510607 3.858879 -9.115045 -0.333091 -0.910638 -0.244519 0 0
    0 -12.475764 0.818575 -8.909055 -0.781203 -0.480195 -0.398917 0 0
  phy
    0 -16.018932 -4.303738 -10.503247 -0.902096 -0.431111 0.019162 0 0
    0 -16.006110 -4.420406 -9.682515 -0.892388 -0.390831 -0.225598 0 0
    0 -10.510607 3.858879 -9.115045 -0.333091 -0.910638 -0.244519 0 0
  phy
    0 -16.018932 -4.303738 -10.503247 -0.902096 -0.431111 0.019162 0 0
    0 -10.510607 3.858879 -9.115045 -0.333091 -0.910638 -0.244519 0 0
    0 -15.809344 -4.097402 -11.679061 -0.832201 -0.460609 0.308675 0 0
  phy
    0 -16.006110 -4.420406 -9.682515 -0.892388 -0.390831 -0.225598 0 0
    0 -16.018932 -4.303738 -10.503247 -0.902096 -0.431111 0.019162 0 0
    0 -20.612420 -17.397151 -11.772064 -0.961544 -0.232269 -0.146578 0 0
  phy
    0 -16.018932 -4.303738 -10.503247 -0.902096 -0.431111 0.019162 0 0
    0 -15.809344 -4.097402 -11.679061 -0.832201 -0.460609 0.308675 0 0
    0 -20.612420 -17.397151 -11.772064 -0.961544 -0.232269 -0.146578 0 0
  phy
    0 16.465624 -5.171048 -15.522901 0.487022 0.272031 0.829945 0 0
    0 14.906830 -17.761624 -12.007739 0.140152 0.404538 0.903718 0 0
    0 15.713502 -5.736221 -15.615824 0.026846 0.287749 0.957329 0 0
  phy
    0 17.071444 -4.942615 -15.083996 0.713764 0.260582 0.650106 0 0
    0 14.906830 -17.761624 -12.007739 0.140152 0.404538 0.903718 0 0
    0 16.465624 -5.171048 -15.522901 0.487022 0.272031 0.829945 0 0
  phy
    0 16.465624 -5.171048 -15.522901 0.487022 0.272031 0.829945 0 0
    0 16.867575 -4.119363 -15.296858 0.659406 -0.135115 0.739546 0 0
    0 17.071444 -4.942615 -15.083996 0.713764 0.260582 0.650106 0 0
  phy
    0 16.264242 -4.494764 -15.713626 0.403778 -0.042467 0.913871 0 0
    0 16.867575 -4.119363 -15.296858 0.659406 -0.135115 0.739546 0 0
    0 16.465624 -5.171048 -15.522901 0.487022 0.272031 0.829945 0 0
  phy
    0 15.713502 -5.736221 -15.615824 0.026846 0.287749 0.957329 0 0
    0 14.906830 -17.761624 -12.007739 0.140152 0.404538 0.903718 0 0
    0 -18.228777 -18.107527 -12.607533 0.017522 0.331054 0.943449 0 0
  phy
    0 18.288992 -3.646495 -12.951862 0.921044 -0.179266 0.345748 0 0
    0 18.507721 -3.754035 -11.566312 0.816535 -0.398505 -0.417689 0 0
    0 18.458102 -4.565673 -12.764689 0.967301 0.239180 0.084389 0 0
  phy
    0 18.034397 -2.769047 -12.937846 0.776998 -0.627996 0.043544 0 0
    0 18.507721 -3.754035 -11.566312 0.816535 -0.398505 -0.417689 0 0
    0 18.288992 -3.646495 -12.951862 0.921044 -0.179266 0.345748 0 0
  phy
    0 17.720577 -2.761284 -13.700167 0.673899 -0.645555 0.359331 0 0
    0 18.034397 -2.769047 -12.937846 0.776998 -0.627996 0.043544 0 0
    0 18.288992 -3.646495 -12.951862 0.921044 -0.179266 0.345748 0 0
  phy
    0 17.673391 -4.653349 -14.392082 0.829437 -0.062395 0.555105 0 0
    0 17.720577 -2.761284 -13.700167 0.673899 -0.645555 0.359331 0 0
    0 18.288992 -3.646495 -12.951862 0.921044 -0.179266 0.345748 0 0
  phy
    0 18.288992 -3.646495 -12.951862 0.921044 -0.179266 0.345748 0 0
    0 18.099846 -4.770641 -13.655448 0.907972 0.228778 0.351065 0 0
    0 17.673391 -4.653349 -14.392082 0.829437 -0.062395 0.555105 0 0
  phy
    0 18.458102 -4.565673 -12.764689 0.967301 0.239180 0.084389 0 0
    0 18.099846 -4.770641 -13.655448 0.907972 0.228778 0.351065 0 0
    0 18.288992 -3.646495 -12.951862 0.921044 -0.179266 0.345748 0 0
  phy
    0 17.673391 -4.653349 -14.392082 0.829437 -0.062395 0.555105 0 0
    0 17.027761 -2.636053 -14.678027 0.504307 -0.663673 0.552461 0 0
    0 17.720577 -2.761284 -13.700167 0.673899 -0.645555 0.359331 0 0
  phy
    0 16.867575 -4.119363 -15.296858 0.659406 -0.135115 0.739546 0 0
    0 17.027761 -2.636053 -14.678027 0.504307 -0.663673 0.552461 0 0
    0 17.673391 -4.653349 -14.392082 0.829437 -0.062395 0.555105 0 0
  phy
    0 17.071444 -4.942615 -15.083996 0.713764 0.260582 0.650106 0 0
    0 16.867575 -4.119363 -15.296858 0.659406 -0.135115 0.739546 0 0
    0 17.673391 -4.653349 -14.392082 0.829437 -0.062395 0.555105 0 0
  phy
    0 16.796726 -1.523845 -11.430854 0.750574 -0.586216 -0.304942 0 0
    0 11.509818 3.900537 -9.199785 0.199784 -0.847293 -0.492120 0 0
    0 13.582232 0.724832 -8.609404 0.702090 -0.439095 -0.560594 0 0
  phy
    0 13.582232 0.724832 -8.609404 0.702090 -0.439095 -0.560594 0 0
    0 18.507721 -3.754035 -11.566312 0.816535 -0.398505 -0.417689 0 0
    0 16.796726 -1.523845 -11.430854 0.750574 -0.586216 -0.304942 0 0
  phy
    0 13.582232 0.724832 -8.609404 0.702090 -0.439095 -0.560594 0 0
    0 12.667382 0.315808 -7.847398 0.490988 -0.032945 -0.870543 0 0
    0 17.401560 -3.769167 -10.435412 0.518155 -0.041109 -0.854298 0 0
  phy
    0 17.401560 -3.769167 -10.435412 0.518155 -0.041109 -0.854298 0 0
    0 18.507721 -3.754035 -11.566312 0.816535 -0.398505 -0.417689 0 0
    0 13.582232 0.724832 -8.609404 0.702090 -0.439095 -0.560594 0 0
  phy
    0 18.034397 -2.769047 -12.937846 0.776998 -0.627996 0.043544 0 0
    0 14.493823 1.065403 -11.132629 0.698031 -0.712000 0.076216 0 0
    0 16.796726 -1.523845 -11.430854 0.750574 -0.586216 -0.304942 0 0
  phy
    0 16.796726 -1.523845 -11.430854 0.750574 -0.586216 -0.304942 0 0
    0 18.507721 -3.754035 -11.566312 0.816535 -0.398505 -0.417689 0 0
    0 18.034397 -2.769047 -12.937846 0.776998 -0.627996 0.043544 0 0
  phy
    0 16.796726 -1.523845 -11.430854 0.750574 -0.586216 -0.304942 0 0
    0 14.493823 1.065403 -11.132629 0.698031 -0.712000 0.076216 0 0
    0 11.509818 3.900537 -9.199785 0.199784 -0.847293 -0.492120 0 0
  phy
    0 11.934280 0.462673 -7.497184 0.380996 -0.000634 -0.924576 0 0
    0 12.667382 0.315808 -7.847398 0.490988 -0.032945 -0.870543 0 0
    0 10.986691 1.890464 -7.155895 0.151005 -0.225971 -0.962359 0 0
  phy
    0 12.667382 0.315808 -7.847398 0.490988 -0.032945 -0.870543 0 0
    0 11.934280 0.462673 -7.497184 0.380996 -0.000634 -0.924576 0 0
    0 14.202289 -17.088742 -8.468075 0.068904 0.117686 -0.990657 0 0
  phy
    0 11.934280 0.462673 -7.497184 0.380996 -0.000634 -0.924576 0 0
    0 10.986691 1.890464 -7.155895 0.151005 -0.225971 -0.962359 0 0
    0 14.202289 -17.088742 -8.468075 0.068904 0.117686 -0.990657 0 0
  phy
    0 13.627352 -18.365601 -10.915696 0.043795 0.963421 0.264389 0 0
    0 -18.050713 -19.184315 -11.499036 0.015436 0.947487 0.319421 0 0
    0 14.906830 -17.761624 -12.007739 0.140152 0.404538 0.903718 0 0
  phy
    0 -18.050713 -19.184315 -11.499036 0.015436 0.947487 0.319421 0 0
    0 -18.228777 -18.107527 -12.607533 0.017522 0.331054 0.943449 0 0
    0 14.906830 -17.761624 -12.007739 0.140152 0.404538 0.903718 0 0
  phy
    0 -18.050713 -19.184315 -11.499036 0.015436 0.947487 0.319421 0 0
    0 13.627352 -18.365601 -10.915696 0.043795 0.963421 0.264389 0 0
    0 13.564353 -18.382133 -9.969064 0.016980 0.962039 -0.272385 0 0
  phy
    0 -18.652828 -17.663933 -9.797064 -0.414931 0.029430 -0.909377 0 0
    0 -18.388405 -18.479116 -9.816475 -0.108170 0.310674 -0.944341 0 0
    0 -15.513080 -5.803542 -8.149923 -0.308318 0.027023 -0.950899 0 0
  phy
    0 -19.833225 -17.649708 -10.448872 -0.700788 -0.095192 -0.706990 0 0
    0 -18.652828 -17.663933 -9.797064 -0.414931 0.029430 -0.909377 0 0
    0 -15.513080 -5.803542 -8.149923 -0.308318 0.027023 -0.950899 0 0
  phy
    0 14.037691 -17.687596 -8.767787 0.005463 0.763536 -0.645742 0 0
    0 14.831128 -17.993391 -9.563118 0.830154 0.239663 -0.503395 0 0
    0 14.202289 -17.088742 -8.468075 0.068904 0.117686 -0.990657 0 0
  phy
    0 -18.388405 -18.479116 -9.816475 -0.108170 0.310674 -0.944341 0 0
    0 14.037691 -17.687596 -8.767787 0.005463 0.763536 -0.645742 0 0
    0 14.202289 -17.088742 -8.468075 0.068904 0.117686 -0.990657 0 0
  phy
    0 15.179848 -17.615758 -10.187988 0.967054 0.250790 -0.043712 0 0
    0 18.246196 -4.735556 -11.150760 0.900541 0.173698 -0.398567 0 0
    0 14.831128 -17.993391 -9.563118 0.830154 0.239663 -0.503395 0 0
  phy
    0 18.458102 -4.565673 -12.764689 0.967301 0.239180 0.084389 0 0
    0 18.246196 -4.735556 -11.150760 0.900541 0.173698 -0.398567 0 0
    0 15.179848 -17.615758 -10.187988 0.967054 0.250790 -0.043712 0 0
  phy
    0 15.179848 -17.615758 -10.187988 0.967054 0.250790 -0.043712 0 0
    0 14.831128 -17.993391 -9.563118 0.830154 0.239663 -0.503395 0 0
    0 14.906830 -17.761624 -12.007739 0.140152 0.404538 0.903718 0 0
  phy
    0 15.179848 -17.615758 -10.187988 0.967054 0.250790 -0.043712 0 0
    0 14.906830 -17.761624 -12.007739 0.140152 0.404538 0.903718 0 0
    0 18.458102 -4.565673 -12.764689 0.967301 0.239180 0.084389 0 0
  phy
    0 -20.251619 -17.187077 -12.370279 -0.729826 -0.252534 0.635280 0 0
    0 -19.854392 -17.853526 -12.635517 -0.085910 0.055720 0.994744 0 0
    0 -20.612420 -17.397151 -11.772064 -0.961544 -0.232269 -0.146578 0 0
  phy
    0 -20.251619 -17.187077 -12.370279 -0.729826 -0.252534 0.635280 0 0
    0 -14.969974 -5.295164 -13.307070 -0.387282 -0.224431 0.894228 0 0
    0 -19.854392 -17.853526 -12.635517 -0.085910 0.055720 0.994744 0 0
  phy
    0 -14.969974 -5.295164 -13.307070 -0.387282 -0.224431 0.894228 0 0
    0 -14.121244 -5.903739 -13.615674 -0.083720 -0.051533 0.995156 0 0
    0 -19.854392 -17.853526 -12.635517 -0.085910 0.055720 0.994744 0 0
  phy
    0 -19.854392 -17.853526 -12.635517 -0.085910 0.055720 0.994744 0 0
    0 -14.121244 -5.903739 -13.615674 -0.083720 -0.051533 0.995156 0 0
    0 15.102369 -4.734544 -15.771081 -0.071578 0.044170 0.996457 0 0
  phy
    0 -11.293724 -0.208996 -7.068121 -0.523439 -0.265790 -0.809548 0 0
    0 -15.513080 -5.803542 -8.149923 -0.308318 0.027023 -0.950899 0 0
    0 -10.091010 -0.370502 -6.733025 -0.050204 0.132621 -0.989895 0 0
  phy
    0 -15.513080 -5.803542 -8.149923 -0.308318 0.027023 -0.950899 0 0
    0 -11.293724 -0.208996 -7.068121 -0.523439 -0.265790 -0.809548 0 0
    0 -15.937397 -5.374360 -8.627971 -0.777644 -0.290676 -0.557474 0 0
  phy
    0 -10.510607 3.858879 -9.115045 -0.333091 -0.910638 -0.244519 0 0
    0 -16.006110 -4.420406 -9.682515 -0.892388 -0.390831 -0.225598 0 0
    0 -12.475764 0.818575 -8.909055 -0.781203 -0.480195 -0.398917 0 0
  phy
    0 -15.937397 -5.374360 -8.627971 -0.777644 -0.290676 -0.557474 0 0
    0 -16.006110 -4.420406 -9.682515 -0.892388 -0.390831 -0.225598 0 0
    0 -20.612420 -17.397151 -11.772064 -0.961544 -0.232269 -0.146578 0 0
  phy
    0 -12.475764 0.818575 -8.909055 -0.781203 -0.480195 -0.398917 0 0
    0 -16.006110 -4.420406 -9.682515 -0.892388 -0.390831 -0.225598 0 0
    0 -15.937397 -5.374360 -8.627971 -0.777644 -0.290676 -0.557474 0 0
  phy
    0 11.509818 3.900537 -9.199785 0.199784 -0.847293 -0.492120 0 0
    0 11.113976 4.301813 -10.179015 0.158161 -0.986548 -0.041323 0 0
    0 -10.510607 3.858879 -9.115045 -0.333091 -0.910638 -0.244519 0 0
  phy
    0 11.113976 4.301813 -10.179015 0.158161 -0.986548 -0.041323 0 0
    0 -10.232315 4.031224 -10.153304 -0.298176 -0.954483 -0.007309 0 0
    0 -10.510607 3.858879 -9.115045 -0.333091 -0.910638 -0.244519 0 0
  phy
    0 -15.809344 -4.097402 -11.679061 -0.832201 -0.460609 0.308675 0 0
    0 -10.510607 3.858879 -9.115045 -0.333091 -0.910638 -0.244519 0 0
    0 -10.232315 4.031224 -10.153304 -0.298176 -0.954483 -0.007309 0 0
  phy
    0 16.264242 -4.494764 -15.713626 0.403778 -0.042467 0.913871 0 0
    0 16.201134 -3.107657 -15.421839 0.044054 -0.427770 0.902813 0 0
    0 16.867575 -4.119363 -15.296858 0.659406 -0.135115 0.739546 0 0
  phy
    0 16.264242 -4.494764 -15.713626 0.403778 -0.042467 0.913871 0 0
    0 15.841908 -4.006828 -15.813352 -0.074033 -0.175207 0.981744 0 0
    0 16.201134 -3.107657 -15.421839 0.044054 -0.427770 0.902813 0 0
  phy
    0 11.113976 4.301813 -10.179015 0.158161 -0.986548 -0.041323 0 0
    0 14.493823 1.065403 -11.132629 0.698031 -0.712000 0.076216 0 0
    0 17.720577 -2.761284 -13.700167 0.673899 -0.645555 0.359331 0 0
  phy
    0 17.720577 -2.761284 -13.700167 0.673899 -0.645555 0.359331 0 0
    0 17.027761 -2.636053 -14.678027 0.504307 -0.663673 0.552461 0 0
    0 11.113976 4.301813 -10.179015 0.158161 -0.986548 -0.041323 0 0
  phy
    0 17.720577 -2.761284 -13.700167 0.673899 -0.645555 0.359331 0 0
    0 14.493823 1.065403 -11.132629 0.698031 -0.712000 0.076216 0 0
    0 18.034397 -2.769047 -12.937846 0.776998 -0.627996 0.043544 0 0
  phy
    0 11.509818 3.900537 -9.199785 0.199784 -0.847293 -0.492120 0 0
    0 14.493823 1.065403 -11.132629 0.698031 -0.712000 0.076216 0 0
    0 11.113976 4.301813 -10.179015 0.158161 -0.986548 -0.041323 0 0
  phy
    0 -8.774598 4.221956 -12.155681 -0.178339 -0.868152 0.463149 0 0
    0 -9.578161 4.167725 -11.405571 -0.369797 -0.903038 0.218568 0 0
    0 11.113976 4.301813 -10.179015 0.158161 -0.986548 -0.041323 0 0
  phy
    0 11.113976 4.301813 -10.179015 0.158161 -0.986548 -0.041323 0 0
    0 10.441077 4.313063 -11.034706 0.220694 -0.933849 0.281461 0 0
    0 -8.774598 4.221956 -12.155681 -0.178339 -0.868152 0.463149 0 0
  phy
    0 -9.578161 4.167725 -11.405571 -0.369797 -0.903038 0.218568 0 0
    0 -10.232315 4.031224 -10.153304 -0.298176 -0.954483 -0.007309 0 0
    0 11.113976 4.301813 -10.179015 0.158161 -0.986548 -0.041323 0 0
  phy
    0 17.027761 -2.636053 -14.678027 0.504307 -0.663673 0.552461 0 0
    0 10.441077 4.313063 -11.034706 0.220694 -0.933849 0.281461 0 0
    0 11.113976 4.301813 -10.179015 0.158161 -0.986548 -0.041323 0 0
  phy
    0 -9.336492 -0.042395 -6.664410 0.017928 0.079284 -0.996691 0 0
    0 10.205413 1.229300 -6.970835 0.030235 0.064269 -0.997474 0 0
    0 -8.693243 1.579488 -6.571103 0.010174 -0.105052 -0.994415 0 0
  phy
    0 10.205413 1.229300 -6.970835 0.030235 0.064269 -0.997474 0 0
    0 -9.336492 -0.042395 -6.664410 0.017928 0.079284 -0.996691 0 0
    0 14.202289 -17.088742 -8.468075 0.068904 0.117686 -0.990657 0 0
  phy
    0 10.205413 1.229300 -6.970835 0.030235 0.064269 -0.997474 0 0
    0 10.986691 1.890464 -7.155895 0.151005 -0.225971 -0.962359 0 0
    0 -8.693243 1.579488 -6.571103 0.010174 -0.105052 -0.994415 0 0
  phy
    0 10.986691 1.890464 -7.155895 0.151005 -0.225971 -0.962359 0 0
    0 10.205413 1.229300 -6.970835 0.030235 0.064269 -0.997474 0 0
    0 14.202289 -17.088742 -8.468075 0.068904 0.117686 -0.990657 0 0
  phy
    0 17.401560 -3.769167 -10.435412 0.518155 -0.041109 -0.854298 0 0
    0 12.667382 0.315808 -7.847398 0.490988 -0.032945 -0.870543 0 0
    0 14.202289 -17.088742 -8.468075 0.068904 0.117686 -0.990657 0 0
  phy
    0 -15.513080 -5.803542 -8.149923 -0.308318 0.027023 -0.950899 0 0
    0 -18.388405 -18.479116 -9.816475 -0.108170 0.310674 -0.944341 0 0
    0 -10.091010 -0.370502 -6.733025 -0.050204 0.132621 -0.989895 0 0
  phy
    0 -18.388405 -18.479116 -9.816475 -0.108170 0.310674 -0.944341 0 0
    0 -16.464266 -17.772446 -9.427781 -0.034362 0.152432 -0.987716 0 0
    0 -10.091010 -0.370502 -6.733025 -0.050204 0.132621 -0.989895 0 0
  phy
    0 -16.464266 -17.772446 -9.427781 -0.034362 0.152432 -0.987716 0 0
    0 -18.388405 -18.479116 -9.816475 -0.108170 0.310674 -0.944341 0 0
    0 14.202289 -17.088742 -8.468075 0.068904 0.117686 -0.990657 0 0
  phy
    0 18.246196 -4.735556 -11.150760 0.900541 0.173698 -0.398567 0 0
    0 14.202289 -17.088742 -8.468075 0.068904 0.117686 -0.990657 0 0
    0 14.831128 -17.993391 -9.563118 0.830154 0.239663 -0.503395 0 0
  phy
    0 -14.121244 -5.903739 -13.615674 -0.083720 -0.051533 0.995156 0 0
    0 15.841908 -4.006828 -15.813352 -0.074033 -0.175207 0.981744 0 0
    0 15.102369 -4.734544 -15.771081 -0.071578 0.044170 0.996457 0 0
  phy
    0 -19.833225 -17.649708 -10.448872 -0.700788 -0.095192 -0.706990 0 0
    0 -15.513080 -5.803542 -8.149923 -0.308318 0.027023 -0.950899 0 0
    0 -15.937397 -5.374360 -8.627971 -0.777644 -0.290676 -0.557474 0 0
  phy
    0 -19.833225 -17.649708 -10.448872 -0.700788 -0.095192 -0.706990 0 0
    0 -15.937397 -5.374360 -8.627971 -0.777644 -0.290676 -0.557474 0 0
    0 -20.612420 -17.397151 -11.772064 -0.961544 -0.232269 -0.146578 0 0
  phy
    0 -15.489670 -4.875468 -12.678262 -0.673161 -0.391879 0.627125 0 0
    0 -14.969974 -5.295164 -13.307070 -0.387282 -0.224431 0.894228 0 0
    0 -20.251619 -17.187077 -12.370279 -0.729826 -0.252534 0.635280 0 0
  phy
    0 -15.489670 -4.875468 -12.678262 -0.673161 -0.391879 0.627125 0 0
    0 -20.251619 -17.187077 -12.370279 -0.729826 -0.252534 0.635280 0 0
    0 -15.809344 -4.097402 -11.679061 -0.832201 -0.460609 0.308675 0 0
  phy
    0 -8.774598 4.221956 -12.155681 -0.178339 -0.868152 0.463149 0 0
    0 -14.969974 -5.295164 -13.307070 -0.387282 -0.224431 0.894228 0 0
    0 -15.489670 -4.875468 -12.678262 -0.673161 -0.391879 0.627125 0 0
  phy
    0 -15.489670 -4.875468 -12.678262 -0.673161 -0.391879 0.627125 0 0
    0 -9.578161 4.167725 -11.405571 -0.369797 -0.903038 0.218568 0 0
    0 -8.774598 4.221956 -12.155681 -0.178339 -0.868152 0.463149 0 0
  phy
    0 -9.578161 4.167725 -11.405571 -0.369797 -0.903038 0.218568 0 0
    0 -15.489670 -4.875468 -12.678262 -0.673161 -0.391879 0.627125 0 0
    0 -15.809344 -4.097402 -11.679061 -0.832201 -0.460609 0.308675 0 0
  phy
    0 18.246196 -4.735556 -11.150760 0.900541 0.173698 -0.398567 0 0
    0 18.507721 -3.754035 -11.566312 0.816535 -0.398505 -0.417689 0 0
    0 17.899119 -4.493780 -10.776349 0.630461 0.023285 -0.775872 0 0
  phy
    0 17.899119 -4.493780 -10.776349 0.630461 0.023285 -0.775872 0 0
    0 18.507721 -3.754035 -11.566312 0.816535 -0.398505 -0.417689 0 0
    0 17.401560 -3.769167 -10.435412 0.518155 -0.041109 -0.854298 0 0
  phy
    0 17.899119 -4.493780 -10.776349 0.630461 0.023285 -0.775872 0 0
    0 14.202289 -17.088742 -8.468075 0.068904 0.117686 -0.990657 0 0
    0 18.246196 -4.735556 -11.150760 0.900541 0.173698 -0.398567 0 0
  phy
    0 17.899119 -4.493780 -10.776349 0.630461 0.023285 -0.775872 0 0
    0 17.401560 -3.769167 -10.435412 0.518155 -0.041109 -0.854298 0 0
    0 14.202289 -17.088742 -8.468075 0.068904 0.117686 -0.990657 0 0
  phy
    0 16.201134 -3.107657 -15.421839 0.044054 -0.427770 0.902813 0 0
    0 17.027761 -2.636053 -14.678027 0.504307 -0.663673 0.552461 0 0
    0 16.867575 -4.119363 -15.296858 0.659406 -0.135115 0.739546 0 0
  phy
    0 18.458102 -4.565673 -12.764689 0.967301 0.239180 0.084389 0 0
    0 18.507721 -3.754035 -11.566312 0.816535 -0.398505 -0.417689 0 0
    0 18.246196 -4.735556 -11.150760 0.900541 0.173698 -0.398567 0 0
  phy
    0 18.458102 -4.565673 -12.764689 0.967301 0.239180 0.084389 0 0
    0 14.906830 -17.761624 -12.007739 0.140152 0.404538 0.903718 0 0
    0 18.099846 -4.770641 -13.655448 0.907972 0.228778 0.351065 0 0
  phy
    0 -9.336492 -0.042395 -6.664410 0.017928 0.079284 -0.996691 0 0
    0 -8.693243 1.579488 -6.571103 0.010174 -0.105052 -0.994415 0 0
    0 -10.091010 -0.370502 -6.733025 -0.050204 0.132621 -0.989895 0 0
  phy
    0 -9.336492 -0.042395 -6.664410 0.017928 0.079284 -0.996691 0 0
    0 -10.091010 -0.370502 -6.733025 -0.050204 0.132621 -0.989895 0 0
    0 14.202289 -17.088742 -8.468075 0.068904 0.117686 -0.990657 0 0
  phy
    0 -7.904077 3.687063 -12.518690 -0.059783 -0.258722 0.964100 0 0
    0 -14.969974 -5.295164 -13.307070 -0.387282 -0.224431 0.894228 0 0
    0 -8.774598 4.221956 -12.155681 -0.178339 -0.868152 0.463149 0 0
  phy
    0 -8.774598 4.221956 -12.155681 -0.178339 -0.868152 0.463149 0 0
    0 10.441077 4.313063 -11.034706 0.220694 -0.933849 0.281461 0 0
    0 9.361840 4.182908 -11.947418 0.203645 -0.807575 0.553490 0 0
  phy
    0 -8.774598 4.221956 -12.155681 -0.178339 -0.868152 0.463149 0 0
    0 8.353233 3.981801 -12.339324 0.016471 -0.453258 0.891227 0 0
    0 -7.904077 3.687063 -12.518690 -0.059783 -0.258722 0.964100 0 0
  phy
    0 9.361840 4.182908 -11.947418 0.203645 -0.807575 0.553490 0 0
    0 8.353233 3.981801 -12.339324 0.016471 -0.453258 0.891227 0 0
    0 -8.774598 4.221956 -12.155681 -0.178339 -0.868152 0.463149 0 0
  phy
    0 -9.578161 4.167725 -11.405571 -0.369797 -0.903038 0.218568 0 0
    0 -15.809344 -4.097402 -11.679061 -0.832201 -0.460609 0.308675 0 0
    0 -10.232315 4.031224 -10.153304 -0.298176 -0.954483 -0.007309 0 0
  phy
    0 -15.809344 -4.097402 -11.679061 -0.832201 -0.460609 0.308675 0 0
    0 -20.251619 -17.187077 -12.370279 -0.729826 -0.252534 0.635280 0 0
    0 -20.612420 -17.397151 -11.772064 -0.961544 -0.232269 -0.146578 0 0
  phy
    0 -10.091010 -0.370502 -6.733025 -0.050204 0.132621 -0.989895 0 0
    0 -16.464266 -17.772446 -9.427781 -0.034362 0.152432 -0.987716 0 0
    0 14.202289 -17.088742 -8.468075 0.068904 0.117686 -0.990657 0 0
  phy
    0 16.201134 -3.107657 -15.421839 0.044054 -0.427770 0.902813 0 0
    0 8.353233 3.981801 -12.339324 0.016471 -0.453258 0.891227 0 0
    0 9.361840 4.182908 -11.947418 0.203645 -0.807575 0.553490 0 0
  phy
    0 9.361840 4.182908 -11.947418 0.203645 -0.807575 0.553490 0 0
    0 17.027761 -2.636053 -14.678027 0.504307 -0.663673 0.552461 0 0
    0 16.201134 -3.107657 -15.421839 0.044054 -0.427770 0.902813 0 0
  phy
    0 -7.904077 3.687063 -12.518690 -0.059783 -0.258722 0.964100 0 0
    0 8.353233 3.981801 -12.339324 0.016471 -0.453258 0.891227 0 0
    0 16.201134 -3.107657 -15.421839 0.044054 -0.427770 0.902813 0 0
  phy
    0 16.201134 -3.107657 -15.421839 0.044054 -0.427770 0.902813 0 0
    0 15.841908 -4.006828 -15.813352 -0.074033 -0.175207 0.981744 0 0
    0 -7.904077 3.687063 -12.518690 -0.059783 -0.258722 0.964100 0 0
  phy
    0 -7.904077 3.687063 -12.518690 -0.059783 -0.258722 0.964100 0 0
    0 -14.121244 -5.903739 -13.615674 -0.083720 -0.051533 0.995156 0 0
    0 -14.969974 -5.295164 -13.307070 -0.387282 -0.224431 0.894228 0 0
  phy
    0 -7.904077 3.687063 -12.518690 -0.059783 -0.258722 0.964100 0 0
    0 15.841908 -4.006828 -15.813352 -0.074033 -0.175207 0.981744 0 0
    0 -14.121244 -5.903739 -13.615674 -0.083720 -0.051533 0.995156 0 0
  phy
    0 9.361840 4.182908 -11.947418 0.203645 -0.807575 0.553490 0 0
    0 10.441077 4.313063 -11.034706 0.220694 -0.933849 0.281461 0 0
    0 17.027761 -2.636053 -14.678027 0.504307 -0.663673 0.552461 0 0
end
