// Created by Crowbar 0.74
version 1
nodes
  0 "NMRiH_FPS_Arms_Control_World" -1
  1 "NMRiH_FPS_Arms_Control_Root" 0
  2 "NMRiH_FPS_Arms_Control_RightCollar-Brk" 1
  3 "NMRiH_FPS_Arms_Control_RightCollar" 2
  4 "NMRiH_FPS_Arms_Control_RightShoulder" 3
  5 "NMRiH_FPS_Arms_Control_RightElbow" 4
  6 "NMRiH_FPS_Arms_Control_RightElbowTwist1" 5
  7 "NMRiH_FPS_Arms_Control_RightElbowTwist2" 5
  8 "NMRiH_FPS_Arms_Control_RightElbowTwist3" 5
  9 "NMRiH_FPS_Arms_Control_LeftCollar-Brk" 1
  10 "NMRiH_FPS_Arms_Control_LeftCollar" 9
  11 "NMRiH_FPS_Arms_Control_LeftShoulder" 10
  12 "NMRiH_FPS_Arms_Control_LeftElbow" 11
  13 "NMRiH_FPS_Arms_Control_LeftElbowTwist1" 12
  14 "NMRiH_FPS_Arms_Control_LeftElbowTwist2" 12
  15 "NMRiH_FPS_Arms_Control_LeftElbowTwist3" 12
  16 "camera_bone" 0
  17 "SphereGizmo01" -1
  18 "NMRiH_FPS_Arms_Control_LeftWrist" 17
  19 "NMRiH_FPS_Arms_Control_PSNULL47" 18
  20 "Thumb1" 19
  21 "Thumb2" 20
  22 "Thumb3" 21
  23 "Index1" 19
  24 "Index2" 23
  25 "Index3" 24
  26 "Middle1" 19
  27 "Middle2" 26
  28 "Middle3" 27
  29 "Ring1" 19
  30 "Ring2" 29
  31 "Ring3" 30
  32 "Pinky1" 19
  33 "Pinky2" 32
  34 "Pinky3" 33
  35 "SphereGizmo02" -1
  36 "NMRiH_FPS_Arms_Control_RightWrist" 35
  37 "NMRiH_FPS_Arms_Control_PSNULL20" 36
  38 "Thumb04" 37
  39 "Thumb05" 38
  40 "Thumb06" 39
  41 "Index06" 37
  42 "Index04" 41
  43 "Index05" 42
  44 "Middle06" 37
  45 "Middle04" 44
  46 "Middle05" 45
  47 "Pinky04" 37
  48 "Pinky05" 47
  49 "Pinky06" 48
  50 "Ring06" 37
  51 "Ring04" 50
  52 "Ring05" 51
  53 "ValveBiped.Bip01_Spine4" 1
  54 "ValveBiped.Bip01_L_Clavicle" -1
  55 "ValveBiped.Bip01_R_Clavicle" -1
  56 "ValveBiped.Bip01_L_UpperArm" 11
  57 "ValveBiped.Bip01_L_Forearm" 12
  58 "ValveBiped.Bip01_L_Hand" 18
  59 "ValveBiped.Bip01_L_Finger0" 20
  60 "ValveBiped.Bip01_L_Finger01" 21
  61 "ValveBiped.Bip01_L_Finger02" 22
  62 "ValveBiped.Bip01_L_Finger1" 23
  63 "ValveBiped.Bip01_L_Finger11" 24
  64 "ValveBiped.Bip01_L_Finger12" 25
  65 "ValveBiped.Bip01_L_Finger2" 26
  66 "ValveBiped.Bip01_L_Finger21" 27
  67 "ValveBiped.Bip01_L_Finger22" 28
  68 "ValveBiped.Bip01_L_Finger3" 29
  69 "ValveBiped.Bip01_L_Finger31" 30
  70 "ValveBiped.Bip01_L_Finger32" 31
  71 "ValveBiped.Bip01_L_Finger4" 32
  72 "ValveBiped.Bip01_L_Finger41" 33
  73 "ValveBiped.Bip01_L_Finger42" 34
  74 "ValveBiped.Bip01_R_UpperArm" 4
  75 "ValveBiped.Bip01_R_Forearm" 5
  76 "ValveBiped.Bip01_R_Hand" 36
  77 "ValveBiped.Bip01_R_Finger0" 38
  78 "ValveBiped.Bip01_R_Finger01" 39
  79 "ValveBiped.Bip01_R_Finger02" 40
  80 "ValveBiped.Bip01_R_Finger1" 41
  81 "ValveBiped.Bip01_R_Finger11" 42
  82 "ValveBiped.Bip01_R_Finger12" 43
  83 "ValveBiped.Bip01_R_Finger2" 44
  84 "ValveBiped.Bip01_R_Finger21" 45
  85 "ValveBiped.Bip01_R_Finger22" 46
  86 "ValveBiped.Bip01_R_Finger3" 50
  87 "ValveBiped.Bip01_R_Finger31" 51
  88 "ValveBiped.Bip01_R_Finger32" 52
  89 "ValveBiped.Bip01_R_Finger4" 47
  90 "ValveBiped.Bip01_R_Finger41" 48
  91 "ValveBiped.Bip01_R_Finger42" 49
end
skeleton
  time 0
    0 0.000000 0.000000 0.000000 0.000000 0.000000 -0.000007
    1 0.000000 2.709942 -10.591393 0.000000 -1.570796 1.570796
    2 3.500857 9.013945 -0.640573 0.000000 -1.570796 0.000000
    3 -2.289403 -1.496114 0.973094 0.000000 0.000000 0.000000
    4 4.409996 0.000005 -0.000003 -0.130772 -0.300567 0.385713
    5 10.079981 -0.000003 -0.000001 -0.000002 -0.000003 -0.453282
    6 0.000000 -0.000001 0.000000 -0.171967 0.000005 0.000001
    7 3.359990 0.000014 -0.000007 -0.343889 0.000000 0.000003
    8 6.719987 0.000030 -0.000015 -0.515911 -0.000002 0.000001
    9 3.500862 -5.725745 -0.640568 0.000000 -1.570795 3.141592
    10 -2.186730 3.179637 -0.996149 0.000000 0.000000 0.000000
    11 4.409998 -0.000001 0.000004 0.168296 0.297527 0.468955
    12 10.079982 0.000014 0.000025 0.000004 0.000046 -0.626276
    13 0.000001 0.000004 0.000000 0.172150 -0.000001 0.000010
    14 3.359994 0.000032 0.000015 0.344271 -0.000007 0.000004
    15 6.719987 0.000057 0.000028 0.516410 0.000003 0.000003
    16 0.000000 0.000000 0.000000 1.570796 0.000000 -3.141592
    17 11.740354 -17.452762 -14.001143 2.221349 0.037515 -1.678220
    18 -0.118055 -0.108981 0.513327 -0.000047 -0.086523 0.000009
    19 4.409994 -0.000012 0.000012 0.000000 0.000000 0.000000
    20 -3.422661 1.711283 0.470872 -0.335481 -0.499195 0.586476
    21 1.410028 0.000010 0.000007 0.000006 0.000009 -0.416995
    22 0.993011 -0.000001 0.000006 0.000001 -0.000006 -0.191500
    23 -1.022532 1.571291 -0.406268 0.250697 -0.074439 0.067410
    24 1.337718 0.000005 0.000002 -0.000184 -0.567382 6.277251
    25 1.180473 -0.000093 -0.000003 0.025419 -0.581348 -0.055357
    26 -0.666712 0.565948 -0.425195 0.110549 -0.252980 -0.015673
    27 1.311736 0.000006 0.000004 -0.001427 -0.711501 0.001400
    28 1.132875 -0.000003 -0.000005 -0.011608 -0.701765 0.039552
    29 -0.835869 -0.375753 -0.250998 -0.093673 -0.284167 -0.063632
    30 1.303124 0.000019 0.000004 0.001245 -0.700354 0.002860
    31 1.094648 -0.000011 -0.000003 -0.035407 -0.650984 0.031820
    32 -1.144743 -1.304737 0.171518 -0.431015 -0.406570 -0.073313
    33 1.052849 0.000000 -0.000004 0.001268 -0.874409 6.274703
    34 0.916342 -0.000031 0.000001 0.028870 -0.762702 -0.021787
    35 -10.365473 -17.307002 -14.075174 0.900063 -0.021850 -1.603185
    36 -0.117880 -0.102734 -0.180849 0.000013 0.017066 0.000000
    37 4.409983 -0.000034 0.000004 0.000000 0.000000 0.000000
    38 -3.459356 1.711287 -0.541797 -0.239043 -0.642690 3.620210
    39 -1.410028 -0.000005 -0.000014 0.000004 0.000001 -0.449088
    40 -0.993008 0.000010 -0.000011 0.000012 -0.000006 -0.446309
    41 -1.077398 1.571280 0.162236 0.164713 -0.433683 3.249701
    42 -1.337713 0.000003 -0.000002 6.107359 -0.636354 0.026438
    43 -1.180471 0.000072 0.000002 0.036716 -0.795406 -0.022610
    44 -0.719599 0.565946 0.238754 -0.166194 -0.771119 -3.109575
    45 -1.311414 -0.000009 -0.000267 0.002810 -0.668338 0.001501
    46 -1.132872 0.000005 -0.000066 0.013795 -0.805639 0.001733
    47 -1.239075 -1.304744 -0.314278 -0.675201 -0.497565 -3.041182
    48 -1.052850 0.000005 -0.000004 0.009026 -1.001621 6.109474
    49 -0.916342 0.000033 0.000003 0.224339 -1.141903 -0.197317
    50 -0.900585 -0.375762 0.090056 -0.283288 -0.633547 -3.104065
    51 -1.303123 -0.000014 0.000008 -0.004266 -0.958454 -0.000993
    52 -1.094650 0.000007 0.000003 -0.009111 -0.880881 0.018421
    53 0.000000 0.000000 0.000000 0.000000 0.000000 0.000000
    54 0.000000 0.000000 0.000000 0.000000 0.000000 -1.570796
    55 0.000000 0.000000 0.000000 0.000000 0.000000 -1.570796
    56 -2.000000 0.000000 0.000000 -1.570796 0.000000 0.174533
    57 -1.500000 0.000002 0.000000 -1.570796 0.000000 0.000000
    58 0.000000 0.500000 0.000000 -1.570796 0.261799 0.000000
    59 -0.000001 0.000000 0.000000 -3.141593 0.174533 0.000000
    60 0.000000 0.000000 -0.000001 -3.141593 0.174533 0.174533
    61 0.000000 0.000000 0.000000 -3.141593 0.349066 -0.174533
    62 0.000000 0.000000 0.000000 -1.570796 0.000000 0.000000
    63 0.000000 0.000000 0.000000 -1.570796 0.000000 0.000000
    64 0.000000 0.000000 0.000000 -1.570796 0.000000 0.000000
    65 0.000000 0.000000 0.000002 -1.570796 0.000000 0.000000
    66 0.000000 0.000000 0.000000 -1.570796 0.000000 0.000000
    67 0.000000 0.000001 0.000000 -1.570796 0.000000 0.000000
    68 0.000000 0.000000 0.000000 -1.570796 0.000000 0.000000
    69 0.000000 0.000000 0.000000 -1.570796 0.000000 0.000000
    70 0.000000 0.000000 0.000000 -1.570796 0.000000 0.000000
    71 0.000000 0.000000 0.000000 -1.570796 0.000000 0.000000
    72 0.000000 0.000000 0.000000 -1.570796 0.000000 0.000000
    73 0.000000 0.000000 0.000000 -1.570796 0.000000 0.000000
    74 -2.000000 0.000000 0.000000 1.570796 0.000000 0.174533
    75 -1.500000 -0.000001 -0.250000 1.570796 0.000000 0.000000
    76 -1.000000 0.250000 0.500000 1.570796 0.000000 0.000000
    77 0.000000 0.000000 0.000000 2.094395 0.000000 -3.141593
    78 0.000000 0.000000 0.000000 2.094395 0.000000 -3.141593
    79 0.000000 -0.200001 -0.200000 1.745329 0.000000 -3.141593
    80 0.000000 -0.000001 -0.000002 1.570796 0.000000 3.141593
    81 0.000000 0.000000 0.000000 1.570796 0.000000 -3.141593
    82 0.000000 0.000000 -0.000002 1.570796 0.000000 -3.141593
    83 0.000000 0.000000 0.000000 1.570796 0.000000 3.141593
    84 -0.000002 0.000000 0.000000 1.570796 0.000000 3.141593
    85 0.000000 0.000000 0.000000 1.570796 0.000000 3.141593
    86 0.000000 0.000000 0.000000 1.570796 0.000000 3.141593
    87 0.000000 0.000000 0.000000 1.570796 0.000000 -3.141593
    88 0.000000 0.000000 0.000000 1.570796 0.000000 -3.141593
    89 0.000000 0.000000 0.000000 1.570796 0.000000 3.141593
    90 0.000000 0.000000 0.000000 1.570796 0.000000 -3.141593
    91 0.000000 0.000000 0.000000 1.570796 0.000000 -3.141593
  time 1
    0 0.000000 0.000000 0.000000 0.000000 0.000000 -0.000007
    1 0.000000 2.709942 -10.591393 0.000000 -1.570796 1.570796
    2 3.500857 9.013945 -0.640573 0.000000 -1.570796 0.000000
    3 -2.289403 -1.496114 0.973094 0.000000 0.000000 0.000000
    4 4.409996 0.000005 -0.000003 -0.050138 -0.238030 0.385583
    5 10.079981 -0.000003 -0.000001 -0.000002 -0.000003 -0.530391
    6 0.000000 -0.000001 0.000000 -0.157930 0.000005 0.000001
    7 3.359990 0.000014 -0.000007 -0.315816 0.000000 0.000003
    8 6.719987 0.000030 -0.000015 -0.473763 -0.000002 0.000001
    9 3.500862 -5.725745 -0.640568 0.000000 -1.570795 3.141592
    10 -2.186730 3.179637 -0.996149 0.000000 0.000000 0.000000
    11 4.409998 -0.000001 0.000004 0.042990 0.279268 0.467443
    12 10.079982 0.000014 0.000025 0.000004 0.000046 -0.671770
    13 0.000001 0.000004 0.000000 0.175518 -0.000001 0.000010
    14 3.359994 0.000032 0.000015 0.351015 -0.000007 0.000004
    15 6.719987 0.000057 0.000028 0.526527 0.000003 0.000003
    16 0.000000 0.000000 0.000000 1.569322 -0.001474 -3.140573
    17 11.365343 -17.706676 -12.969861 2.140461 0.061176 -1.679333
    18 -0.118055 -0.108981 0.513327 -0.000047 -0.086523 0.000009
    19 4.409994 -0.000012 0.000012 0.000000 0.000000 0.000000
    20 -3.422661 1.711283 0.470872 -0.326780 -0.501507 0.570208
    21 1.410028 0.000010 0.000007 0.000006 0.000009 -0.431030
    22 0.993011 -0.000001 0.000006 0.000001 -0.000006 -0.205514
    23 -1.022532 1.571291 -0.406268 0.258356 -0.099292 0.055380
    24 1.337718 0.000005 0.000002 -0.000184 -0.593908 6.277155
    25 1.180473 -0.000093 -0.000003 0.004676 -0.608698 -0.032409
    26 -0.666712 0.565948 -0.425195 0.114611 -0.275430 -0.021257
    27 1.311736 0.000006 0.000004 -0.000469 -0.734256 0.000634
    28 1.132875 -0.000003 -0.000005 0.009873 -0.725274 0.016531
    29 -0.835869 -0.375753 -0.250998 -0.097052 -0.305931 -0.059018
    30 1.303124 0.000019 0.000004 -0.002480 -0.722316 0.006870
    31 1.094648 -0.000011 -0.000003 -0.036078 -0.673025 0.031844
    32 -1.144743 -1.304737 0.171518 -0.444357 -0.423366 -0.055194
    33 1.052849 0.000000 -0.000004 0.000885 -0.895149 6.274607
    34 0.916342 -0.000031 0.000001 0.028199 -0.783300 -0.020925
    35 -9.748267 -17.658575 -12.555596 1.002452 0.054315 -1.611146
    36 -0.117880 -0.102734 -0.180849 0.000013 0.017066 0.000000
    37 4.409983 -0.000034 0.000004 0.000000 0.000000 0.000000
    38 -3.459356 1.711287 -0.541797 -0.230078 -0.643344 3.605829
    39 -1.410028 -0.000005 -0.000014 0.000004 0.000001 -0.460439
    40 -0.993008 0.000010 -0.000011 0.000012 -0.000006 -0.457714
    41 -1.077398 1.571280 0.162236 0.169315 -0.450619 3.243565
    42 -1.337713 0.000003 -0.000002 6.110122 -0.665368 0.026630
    43 -1.180471 0.000072 0.000002 0.041294 -0.812867 -0.026829
    44 -0.719599 0.565946 0.238754 -0.163617 -0.787091 -3.108293
    45 -1.311414 -0.000009 -0.000267 0.002810 -0.684292 0.001501
    46 -1.132872 0.000005 -0.000066 0.013412 -0.834117 0.002877
    47 -1.239075 -1.304744 -0.314278 -0.693779 -0.509433 -3.015675
    48 -1.052850 0.000005 -0.000004 0.001886 -1.016408 6.113787
    49 -0.916342 0.000033 0.000003 0.218488 -1.156939 -0.191862
    50 -0.900585 -0.375762 0.090056 -0.295489 -0.648544 -3.089742
    51 -1.303123 -0.000014 0.000008 -0.004266 -0.970590 -0.000993
    52 -1.094650 0.000007 0.000003 0.004975 -0.900158 0.004067
    53 0.000000 0.000000 0.000000 0.000000 0.000000 0.000000
    54 0.000000 0.000000 0.000000 0.000000 0.000000 -1.570796
    55 0.000000 0.000000 0.000000 0.000000 0.000000 -1.570796
    56 -2.000000 0.000000 0.000000 -1.570796 0.000000 0.174533
    57 -1.500000 0.000002 0.000000 -1.570796 0.000000 0.000000
    58 0.000000 0.500000 0.000000 -1.570796 0.261799 0.000000
    59 -0.000001 0.000000 0.000000 -3.141593 0.174533 0.000000
    60 0.000000 0.000000 -0.000001 -3.141593 0.174533 0.174533
    61 0.000000 0.000000 0.000000 -3.141593 0.349066 -0.174533
    62 0.000000 0.000000 0.000000 -1.570796 0.000000 0.000000
    63 0.000000 0.000000 0.000000 -1.570796 0.000000 0.000000
    64 0.000000 0.000000 0.000000 -1.570796 0.000000 0.000000
    65 0.000000 0.000000 0.000002 -1.570796 0.000000 0.000000
    66 0.000000 0.000000 0.000000 -1.570796 0.000000 0.000000
    67 0.000000 0.000001 0.000000 -1.570796 0.000000 0.000000
    68 0.000000 0.000000 0.000000 -1.570796 0.000000 0.000000
    69 0.000000 0.000000 0.000000 -1.570796 0.000000 0.000000
    70 0.000000 0.000000 0.000000 -1.570796 0.000000 0.000000
    71 0.000000 0.000000 0.000000 -1.570796 0.000000 0.000000
    72 0.000000 0.000000 0.000000 -1.570796 0.000000 0.000000
    73 0.000000 0.000000 0.000000 -1.570796 0.000000 0.000000
    74 -2.000000 0.000000 0.000000 1.570796 0.000000 0.174533
    75 -1.500000 -0.000001 -0.250000 1.570796 0.000000 0.000000
    76 -1.000000 0.250000 0.500000 1.570796 0.000000 0.000000
    77 0.000000 0.000000 0.000000 2.094395 0.000000 -3.141593
    78 0.000000 0.000000 0.000000 2.094395 0.000000 -3.141593
    79 0.000000 -0.200001 -0.200000 1.745329 0.000000 -3.141593
    80 0.000000 -0.000001 -0.000002 1.570796 0.000000 3.141593
    81 0.000000 0.000000 0.000000 1.570796 0.000000 -3.141593
    82 0.000000 0.000000 -0.000002 1.570796 0.000000 -3.141593
    83 0.000000 0.000000 0.000000 1.570796 0.000000 3.141593
    84 -0.000002 0.000000 0.000000 1.570796 0.000000 3.141593
    85 0.000000 0.000000 0.000000 1.570796 0.000000 3.141593
    86 0.000000 0.000000 0.000000 1.570796 0.000000 3.141593
    87 0.000000 0.000000 0.000000 1.570796 0.000000 -3.141593
    88 0.000000 0.000000 0.000000 1.570796 0.000000 -3.141593
    89 0.000000 0.000000 0.000000 1.570796 0.000000 3.141593
    90 0.000000 0.000000 0.000000 1.570796 0.000000 -3.141593
    91 0.000000 0.000000 0.000000 1.570796 0.000000 -3.141593
  time 2
    0 0.000000 0.000000 0.000000 0.000000 0.000000 -0.000007
    1 0.000000 2.709942 -10.591393 0.000000 -1.570796 1.570796
    2 3.500857 9.013945 -0.640573 0.000000 -1.570796 0.000000
    3 -2.289403 -1.496114 0.973094 0.000000 0.000000 0.000000
    4 4.409996 0.000005 -0.000003 0.018610 -0.188405 0.361751
    5 10.079981 -0.000003 -0.000001 -0.000002 -0.000003 -0.549470
    6 0.000000 -0.000001 0.000000 -0.145027 0.000005 0.000001
    7 3.359990 0.000014 -0.000007 -0.290010 0.000000 0.000003
    8 6.719987 0.000030 -0.000015 -0.435092 -0.000002 0.000001
    9 3.500862 -5.725745 -0.640568 0.000000 -1.570795 3.141592
    10 -2.186730 3.179637 -0.996149 0.000000 0.000000 0.000000
    11 4.409998 -0.000001 0.000004 -0.062749 0.263482 0.452522
    12 10.079982 0.000014 0.000025 0.000004 0.000046 -0.693571
    13 0.000001 0.000004 0.000000 0.177675 -0.000001 0.000010
    14 3.359994 0.000032 0.000015 0.355309 -0.000007 0.000004
    15 6.719987 0.000057 0.000028 0.532996 0.000003 0.000003
    16 0.000000 0.000000 0.000000 1.566985 -0.003811 -3.138991
    17 11.021582 -17.925432 -12.047958 2.077483 0.077910 -1.680112
    18 -0.118055 -0.108981 0.513327 -0.000047 -0.086523 0.000009
    19 4.409994 -0.000012 0.000012 0.000000 0.000000 0.000000
    20 -3.422661 1.711283 0.470872 -0.306754 -0.506810 0.532681
    21 1.410028 0.000010 0.000007 0.000006 0.000009 -0.463324
    22 0.993011 -0.000001 0.000006 0.000001 -0.000006 -0.237829
    23 -1.022532 1.571291 -0.406268 0.275973 -0.156728 0.027660
    24 1.337718 0.000005 0.000002 -0.000184 -0.654878 -0.005837
    25 1.180473 -0.000093 -0.000003 -0.043096 -0.671646 0.020324
    26 -0.666712 0.565948 -0.425195 0.124007 -0.327289 -0.034165
    27 1.311736 0.000006 0.000004 0.001447 -0.786896 -0.001187
    28 1.132875 -0.000003 -0.000005 0.059402 -0.779568 -0.036063
    29 -0.835869 -0.375753 -0.250998 -0.104902 -0.356094 -0.048388
    30 1.303124 0.000019 0.000004 -0.011076 -0.773017 0.016035
    31 1.094648 -0.000011 -0.000003 -0.037636 -0.723620 0.031904
    32 -1.144743 -1.304737 0.171518 -0.475115 -0.461952 -0.013470
    33 1.052849 0.000000 -0.000004 -0.000169 -0.942826 6.274799
    34 0.916342 -0.000031 0.000001 0.026570 -0.830988 -0.019104
    35 -9.217001 -17.935927 -11.293839 1.076868 0.104636 -1.616736
    36 -0.117880 -0.102734 -0.180849 0.000013 0.017066 0.000000
    37 4.409983 -0.000034 0.000004 0.000000 0.000000 0.000000
    38 -3.459356 1.711287 -0.541797 -0.209465 -0.644902 3.572613
    39 -1.410028 -0.000005 -0.000014 0.000004 0.000001 -0.486661
    40 -0.993008 0.000010 -0.000011 0.000012 -0.000006 -0.483911
    41 -1.077398 1.571280 0.162236 0.179910 -0.489736 3.229411
    42 -1.337713 0.000003 -0.000002 6.116411 -0.732377 0.027109
    43 -1.180471 0.000072 0.000002 0.051829 -0.852934 -0.036536
    44 -0.719599 0.565946 0.238754 -0.157733 -0.823699 -3.105357
    45 -1.311414 -0.000009 -0.000267 0.002810 -0.720916 0.001501
    46 -1.132872 0.000005 -0.000066 0.012455 -0.899823 0.005641
    47 -1.239075 -1.304744 -0.314278 -0.736522 -0.536963 -2.956963
    48 -1.052850 0.000005 -0.000004 -0.014298 -1.050661 6.123467
    49 -0.916342 0.000033 0.000003 0.205184 -1.191672 -0.179423
    50 -0.900585 -0.375762 0.090056 -0.323593 -0.683184 -3.056793
    51 -1.303123 -0.000014 0.000008 -0.004266 -0.998537 -0.000993
    52 -1.094650 0.000007 0.000003 0.037400 -0.944560 -0.029080
    53 0.000000 0.000000 0.000000 0.000000 0.000000 0.000000
    54 0.000000 0.000000 0.000000 0.000000 0.000000 -1.570796
    55 0.000000 0.000000 0.000000 0.000000 0.000000 -1.570796
    56 -2.000000 0.000000 0.000000 -1.570796 0.000000 0.174533
    57 -1.500000 0.000002 0.000000 -1.570796 0.000000 0.000000
    58 0.000000 0.500000 0.000000 -1.570796 0.261799 0.000000
    59 -0.000001 0.000000 0.000000 -3.141593 0.174533 0.000000
    60 0.000000 0.000000 -0.000001 -3.141593 0.174533 0.174533
    61 0.000000 0.000000 0.000000 -3.141593 0.349066 -0.174533
    62 0.000000 0.000000 0.000000 -1.570796 0.000000 0.000000
    63 0.000000 0.000000 0.000000 -1.570796 0.000000 0.000000
    64 0.000000 0.000000 0.000000 -1.570796 0.000000 0.000000
    65 0.000000 0.000000 0.000002 -1.570796 0.000000 0.000000
    66 0.000000 0.000000 0.000000 -1.570796 0.000000 0.000000
    67 0.000000 0.000001 0.000000 -1.570796 0.000000 0.000000
    68 0.000000 0.000000 0.000000 -1.570796 0.000000 0.000000
    69 0.000000 0.000000 0.000000 -1.570796 0.000000 0.000000
    70 0.000000 0.000000 0.000000 -1.570796 0.000000 0.000000
    71 0.000000 0.000000 0.000000 -1.570796 0.000000 0.000000
    72 0.000000 0.000000 0.000000 -1.570796 0.000000 0.000000
    73 0.000000 0.000000 0.000000 -1.570796 0.000000 0.000000
    74 -2.000000 0.000000 0.000000 1.570796 0.000000 0.174533
    75 -1.500000 -0.000001 -0.250000 1.570796 0.000000 0.000000
    76 -1.000000 0.250000 0.500000 1.570796 0.000000 0.000000
    77 0.000000 0.000000 0.000000 2.094395 0.000000 -3.141593
    78 0.000000 0.000000 0.000000 2.094395 0.000000 -3.141593
    79 0.000000 -0.200001 -0.200000 1.745329 0.000000 -3.141593
    80 0.000000 -0.000001 -0.000002 1.570796 0.000000 3.141593
    81 0.000000 0.000000 0.000000 1.570796 0.000000 -3.141593
    82 0.000000 0.000000 -0.000002 1.570796 0.000000 -3.141593
    83 0.000000 0.000000 0.000000 1.570796 0.000000 3.141593
    84 -0.000002 0.000000 0.000000 1.570796 0.000000 3.141593
    85 0.000000 0.000000 0.000000 1.570796 0.000000 3.141593
    86 0.000000 0.000000 0.000000 1.570796 0.000000 3.141593
    87 0.000000 0.000000 0.000000 1.570796 0.000000 -3.141593
    88 0.000000 0.000000 0.000000 1.570796 0.000000 -3.141593
    89 0.000000 0.000000 0.000000 1.570796 0.000000 3.141593
    90 0.000000 0.000000 0.000000 1.570796 0.000000 -3.141593
    91 0.000000 0.000000 0.000000 1.570796 0.000000 -3.141593
  time 3
    0 0.000000 0.000000 0.000000 0.000000 0.000000 -0.000007
    1 0.000000 2.709942 -10.591393 0.000000 -1.570796 1.570796
    2 3.500857 9.013945 -0.640573 0.000000 -1.570796 0.000000
    3 -2.289403 -1.496114 0.973094 0.000000 0.000000 0.000000
    4 4.409996 0.000005 -0.000003 0.070703 -0.148028 0.330234
    5 10.079981 -0.000003 -0.000001 -0.000002 -0.000003 -0.541172
    6 0.000000 -0.000001 0.000000 -0.137005 0.000005 0.000001
    7 3.359990 0.000014 -0.000007 -0.274016 0.000000 0.000003
    8 6.719987 0.000030 -0.000015 -0.411024 -0.000002 0.000001
    9 3.500862 -5.725745 -0.640568 0.000000 -1.570795 3.141592
    10 -2.186730 3.179637 -0.996149 0.000000 0.000000 0.000000
    11 4.409998 -0.000001 0.000004 -0.148652 0.247270 0.430726
    12 10.079982 0.000014 0.000025 0.000004 0.000046 -0.700287
    13 0.000001 0.000004 0.000000 0.179712 -0.000001 0.000010
    14 3.359994 0.000032 0.000015 0.359432 -0.000007 0.000004
    15 6.719987 0.000057 0.000028 0.539123 0.000003 0.000003
    16 0.000000 0.000000 0.000000 1.564816 -0.005980 -3.137397
    17 10.705166 -18.105125 -11.239340 2.032493 0.087754 -1.680613
    18 -0.118055 -0.108981 0.513327 -0.000047 -0.086523 0.000009
    19 4.409994 -0.000012 0.000012 0.000000 0.000000 0.000000
    20 -3.422661 1.711283 0.470872 -0.277631 -0.514590 0.478201
    21 1.410028 0.000010 0.000007 0.000006 0.000009 -0.510254
    22 0.993011 -0.000001 0.000006 0.000001 -0.000006 -0.284738
    23 -1.022532 1.571291 -0.406268 0.301584 -0.240139 -0.012646
    24 1.337718 0.000005 0.000002 -0.000184 -0.743413 6.277155
    25 1.180473 -0.000093 -0.000003 -0.112644 -0.763176 0.097128
    26 -0.666712 0.565948 -0.425195 0.137682 -0.402659 -0.052897
    27 1.311736 0.000006 0.000004 0.004130 -0.863213 -0.003869
    28 1.132875 -0.000003 -0.000005 0.131445 -0.858286 -0.112520
    29 -0.835869 -0.375753 -0.250998 -0.116300 -0.428950 -0.032940
    30 1.303124 0.000019 0.000004 -0.023588 -0.846570 0.029402
    31 1.094648 -0.000011 -0.000003 -0.039889 -0.797122 0.032000
    32 -1.144743 -1.304737 0.171518 -0.519771 -0.518052 0.047111
    33 1.052849 0.000000 -0.000004 -0.001606 -1.012100 6.274990
    34 0.916342 -0.000031 0.000001 0.024175 -0.900245 -0.016325
    35 -8.771675 -18.146871 -10.301621 1.123216 0.129075 -1.619870
    36 -0.117880 -0.102734 -0.180849 0.000013 0.017066 0.000000
    37 4.409983 -0.000034 0.000004 0.000000 0.000000 0.000000
    38 -3.459356 1.711287 -0.541797 -0.179491 -0.647141 3.524389
    39 -1.410028 -0.000005 -0.000014 0.000004 0.000001 -0.524710
    40 -0.993008 0.000010 -0.000011 0.000012 -0.000006 -0.521935
    41 -1.077398 1.571280 0.162236 0.195274 -0.546557 3.208857
    42 -1.337713 0.000003 -0.000002 6.125652 -0.829690 0.027684
    43 -1.180471 0.000072 0.000002 0.067121 -0.911189 -0.050654
    44 -0.719599 0.565946 0.238754 -0.149152 -0.876961 -3.101054
    45 -1.311414 -0.000009 -0.000267 0.002810 -0.774234 0.001501
    46 -1.132872 0.000005 -0.000066 0.011211 -0.995205 0.009549
    47 -1.239075 -1.304744 -0.314278 -0.798672 -0.576882 -2.871629
    48 -1.052850 0.000005 -0.000004 -0.037907 -1.100348 6.137651
    49 -0.916342 0.000033 0.000003 0.185747 -1.242211 -0.161242
    50 -0.900585 -0.375762 0.090056 -0.364463 -0.733493 -3.008891
    51 -1.303123 -0.000014 0.000008 -0.004266 -1.039073 -0.000993
    52 -1.094650 0.000007 0.000003 0.084573 -1.009101 -0.077242
    53 0.000000 0.000000 0.000000 0.000000 0.000000 0.000000
    54 0.000000 0.000000 0.000000 0.000000 0.000000 -1.570796
    55 0.000000 0.000000 0.000000 0.000000 0.000000 -1.570796
    56 -2.000000 0.000000 0.000000 -1.570796 0.000000 0.174533
    57 -1.500000 0.000002 0.000000 -1.570796 0.000000 0.000000
    58 0.000000 0.500000 0.000000 -1.570796 0.261799 0.000000
    59 -0.000001 0.000000 0.000000 -3.141593 0.174533 0.000000
    60 0.000000 0.000000 -0.000001 -3.141593 0.174533 0.174533
    61 0.000000 0.000000 0.000000 -3.141593 0.349066 -0.174533
    62 0.000000 0.000000 0.000000 -1.570796 0.000000 0.000000
    63 0.000000 0.000000 0.000000 -1.570796 0.000000 0.000000
    64 0.000000 0.000000 0.000000 -1.570796 0.000000 0.000000
    65 0.000000 0.000000 0.000002 -1.570796 0.000000 0.000000
    66 0.000000 0.000000 0.000000 -1.570796 0.000000 0.000000
    67 0.000000 0.000001 0.000000 -1.570796 0.000000 0.000000
    68 0.000000 0.000000 0.000000 -1.570796 0.000000 0.000000
    69 0.000000 0.000000 0.000000 -1.570796 0.000000 0.000000
    70 0.000000 0.000000 0.000000 -1.570796 0.000000 0.000000
    71 0.000000 0.000000 0.000000 -1.570796 0.000000 0.000000
    72 0.000000 0.000000 0.000000 -1.570796 0.000000 0.000000
    73 0.000000 0.000000 0.000000 -1.570796 0.000000 0.000000
    74 -2.000000 0.000000 0.000000 1.570796 0.000000 0.174533
    75 -1.500000 -0.000001 -0.250000 1.570796 0.000000 0.000000
    76 -1.000000 0.250000 0.500000 1.570796 0.000000 0.000000
    77 0.000000 0.000000 0.000000 2.094395 0.000000 -3.141593
    78 0.000000 0.000000 0.000000 2.094395 0.000000 -3.141593
    79 0.000000 -0.200001 -0.200000 1.745329 0.000000 -3.141593
    80 0.000000 -0.000001 -0.000002 1.570796 0.000000 3.141593
    81 0.000000 0.000000 0.000000 1.570796 0.000000 -3.141593
    82 0.000000 0.000000 -0.000002 1.570796 0.000000 -3.141593
    83 0.000000 0.000000 0.000000 1.570796 0.000000 3.141593
    84 -0.000002 0.000000 0.000000 1.570796 0.000000 3.141593
    85 0.000000 0.000000 0.000000 1.570796 0.000000 3.141593
    86 0.000000 0.000000 0.000000 1.570796 0.000000 3.141593
    87 0.000000 0.000000 0.000000 1.570796 0.000000 -3.141593
    88 0.000000 0.000000 0.000000 1.570796 0.000000 -3.141593
    89 0.000000 0.000000 0.000000 1.570796 0.000000 3.141593
    90 0.000000 0.000000 0.000000 1.570796 0.000000 -3.141593
    91 0.000000 0.000000 0.000000 1.570796 0.000000 -3.141593
  time 4
    0 0.000000 0.000000 0.000000 0.000000 0.000000 -0.000007
    1 0.000000 2.709942 -10.591393 0.000000 -1.570796 1.570796
    2 3.500857 9.013945 -0.640573 0.000000 -1.570796 0.000000
    3 -2.289403 -1.496114 0.973094 0.000000 0.000000 0.000000
    4 4.409996 0.000005 -0.000003 0.106361 -0.117115 0.300573
    5 10.079981 -0.000003 -0.000001 -0.000002 -0.000003 -0.524207
    6 0.000000 -0.000001 0.000000 -0.135678 0.000005 0.000001
    7 3.359990 0.000014 -0.000007 -0.271364 0.000000 0.000003
    8 6.719987 0.000030 -0.000015 -0.407045 -0.000002 0.000001
    9 3.500862 -5.725745 -0.640568 0.000000 -1.570795 3.141592
    10 -2.186730 3.179637 -0.996149 0.000000 0.000000 0.000000
    11 4.409998 -0.000001 0.000004 -0.216219 0.230534 0.406761
    12 10.079982 0.000014 0.000025 0.000004 0.000046 -0.698206
    13 0.000001 0.000004 0.000000 0.182768 -0.000001 0.000010
    14 3.359994 0.000032 0.000015 0.365530 -0.000007 0.000004
    15 6.719987 0.000057 0.000028 0.548271 0.000003 0.000003
    16 0.000000 0.000000 0.000000 1.563821 -0.006951 -3.136391
    17 10.423908 -18.249661 -10.544006 2.005452 0.090561 -1.680780
    18 -0.118055 -0.108981 0.513327 -0.000047 -0.086523 0.000009
    19 4.409994 -0.000012 0.000012 0.000000 0.000000 0.000000
    20 -3.422661 1.711283 0.470872 -0.241726 -0.524124 0.411000
    21 1.410028 0.000010 0.000007 0.000006 0.000009 -0.568176
    22 0.993011 -0.000001 0.000006 0.000001 -0.000006 -0.342660
    23 -1.022532 1.571291 -0.406268 0.333187 -0.342990 -0.062357
    24 1.337718 0.000005 0.000002 -0.000184 -0.852634 6.277251
    25 1.180473 -0.000093 -0.000003 -0.198335 -0.876036 0.191729
    26 -0.666712 0.565948 -0.425195 0.154520 -0.495641 -0.075991
    27 1.311736 0.000006 0.000004 0.007482 -0.957481 -0.007126
    28 1.132875 -0.000003 -0.000005 0.220278 -0.955455 -0.206945
    29 -0.835869 -0.375753 -0.250998 -0.130346 -0.518838 -0.013836
    30 1.303124 0.000019 0.000004 -0.038966 -0.937337 0.045920
    31 1.094648 -0.000011 -0.000003 -0.042670 -0.887930 0.032107
    32 -1.144743 -1.304737 0.171518 -0.574896 -0.587219 0.121908
    33 1.052849 0.000000 -0.000004 -0.003427 -1.097490 6.275278
    34 0.916342 -0.000031 0.000001 0.021397 -0.985808 -0.012971
    35 -8.408382 -18.287500 -9.567224 1.141559 0.127596 -1.620463
    36 -0.117880 -0.102734 -0.180849 0.000013 0.017066 0.000000
    37 4.409983 -0.000034 0.000004 0.000000 0.000000 0.000000
    38 -3.459356 1.711287 -0.541797 -0.142543 -0.649894 3.464920
    39 -1.410028 -0.000005 -0.000014 0.000004 0.000001 -0.571676
    40 -0.993008 0.000010 -0.000011 0.000012 -0.000006 -0.568903
    41 -1.077398 1.571280 0.162236 0.214270 -0.616640 3.183486
    42 -1.337713 0.000003 -0.000002 6.137086 -0.949800 0.028450
    43 -1.180471 0.000072 0.000002 0.086009 -0.983060 -0.068068
    44 -0.719599 0.565946 0.238754 -0.138557 -0.942705 -3.095769
    45 -1.311414 -0.000009 -0.000267 0.002810 -0.839898 0.001501
    46 -1.132872 0.000005 -0.000066 0.009585 -1.112996 0.014410
    47 -1.239075 -1.304744 -0.314278 -0.875311 -0.626093 -2.766364
    48 -1.052850 0.000005 -0.000004 -0.067038 -1.161702 6.155189
    49 -0.916342 0.000033 0.000003 0.161874 -1.304422 -0.138755
    50 -0.900585 -0.375762 0.090056 -0.414879 -0.795466 -2.949796
    51 -1.303123 -0.000014 0.000008 -0.004266 -1.089026 -0.000993
    52 -1.094650 0.000007 0.000003 0.142806 -1.088747 -0.136642
    53 0.000000 0.000000 0.000000 0.000000 0.000000 0.000000
    54 0.000000 0.000000 0.000000 0.000000 0.000000 -1.570796
    55 0.000000 0.000000 0.000000 0.000000 0.000000 -1.570796
    56 -2.000000 0.000000 0.000000 -1.570796 0.000000 0.174533
    57 -1.500000 0.000002 0.000000 -1.570796 0.000000 0.000000
    58 0.000000 0.500000 0.000000 -1.570796 0.261799 0.000000
    59 -0.000001 0.000000 0.000000 -3.141593 0.174533 0.000000
    60 0.000000 0.000000 -0.000001 -3.141593 0.174533 0.174533
    61 0.000000 0.000000 0.000000 -3.141593 0.349066 -0.174533
    62 0.000000 0.000000 0.000000 -1.570796 0.000000 0.000000
    63 0.000000 0.000000 0.000000 -1.570796 0.000000 0.000000
    64 0.000000 0.000000 0.000000 -1.570796 0.000000 0.000000
    65 0.000000 0.000000 0.000002 -1.570796 0.000000 0.000000
    66 0.000000 0.000000 0.000000 -1.570796 0.000000 0.000000
    67 0.000000 0.000001 0.000000 -1.570796 0.000000 0.000000
    68 0.000000 0.000000 0.000000 -1.570796 0.000000 0.000000
    69 0.000000 0.000000 0.000000 -1.570796 0.000000 0.000000
    70 0.000000 0.000000 0.000000 -1.570796 0.000000 0.000000
    71 0.000000 0.000000 0.000000 -1.570796 0.000000 0.000000
    72 0.000000 0.000000 0.000000 -1.570796 0.000000 0.000000
    73 0.000000 0.000000 0.000000 -1.570796 0.000000 0.000000
    74 -2.000000 0.000000 0.000000 1.570796 0.000000 0.174533
    75 -1.500000 -0.000001 -0.250000 1.570796 0.000000 0.000000
    76 -1.000000 0.250000 0.500000 1.570796 0.000000 0.000000
    77 0.000000 0.000000 0.000000 2.094395 0.000000 -3.141593
    78 0.000000 0.000000 0.000000 2.094395 0.000000 -3.141593
    79 0.000000 -0.200001 -0.200000 1.745329 0.000000 -3.141593
    80 0.000000 -0.000001 -0.000002 1.570796 0.000000 3.141593
    81 0.000000 0.000000 0.000000 1.570796 0.000000 -3.141593
    82 0.000000 0.000000 -0.000002 1.570796 0.000000 -3.141593
    83 0.000000 0.000000 0.000000 1.570796 0.000000 3.141593
    84 -0.000002 0.000000 0.000000 1.570796 0.000000 3.141593
    85 0.000000 0.000000 0.000000 1.570796 0.000000 3.141593
    86 0.000000 0.000000 0.000000 1.570796 0.000000 3.141593
    87 0.000000 0.000000 0.000000 1.570796 0.000000 -3.141593
    88 0.000000 0.000000 0.000000 1.570796 0.000000 -3.141593
    89 0.000000 0.000000 0.000000 1.570796 0.000000 3.141593
    90 0.000000 0.000000 0.000000 1.570796 0.000000 -3.141593
    91 0.000000 0.000000 0.000000 1.570796 0.000000 -3.141593
  time 5
    0 0.000000 0.000000 0.000000 0.000000 0.000000 -0.000007
    1 0.000000 2.709942 -10.591393 0.000000 -1.570796 1.570796
    2 3.500857 9.013945 -0.640573 0.000000 -1.570796 0.000000
    3 -2.289403 -1.496114 0.973094 0.000000 0.000000 0.000000
    4 4.409996 0.000005 -0.000003 0.123603 -0.100688 0.283519
    5 10.079981 -0.000003 -0.000001 -0.000002 -0.000003 -0.518711
    6 0.000000 -0.000001 0.000000 -0.144989 0.000005 0.000001
    7 3.359990 0.000014 -0.000007 -0.289984 0.000000 0.000003
    8 6.719987 0.000030 -0.000015 -0.434977 -0.000002 0.000001
    9 3.500862 -5.725745 -0.640568 0.000000 -1.570795 3.141592
    10 -2.186730 3.179637 -0.996149 0.000000 0.000000 0.000000
    11 4.409998 -0.000001 0.000004 -0.267331 0.214388 0.383995
    12 10.079982 0.000014 0.000025 0.000004 0.000046 -0.692436
    13 0.000001 0.000004 0.000000 0.187754 -0.000001 0.000010
    14 3.359994 0.000032 0.000015 0.375466 -0.000007 0.000004
    15 6.719987 0.000057 0.000028 0.563232 0.000003 0.000003
    16 0.000000 0.000000 0.000000 1.564900 -0.005896 -3.136043
    17 10.166087 -18.359039 -9.961957 1.996438 0.086405 -1.680780
    18 -0.118055 -0.108981 0.513327 -0.000047 -0.086523 0.000009
    19 4.409994 -0.000012 0.000012 0.000000 0.000000 0.000000
    20 -3.422661 1.711283 0.470872 -0.201278 -0.534855 0.335237
    21 1.410028 0.000010 0.000007 0.000006 0.000009 -0.633385
    22 0.993011 -0.000001 0.000006 0.000001 -0.000006 -0.407868
    23 -1.022532 1.571291 -0.406268 0.368794 -0.458906 -0.118337
    24 1.337718 0.000005 0.000002 -0.000184 -0.975762 6.277251
    25 1.180473 -0.000093 -0.000003 -0.294913 -1.003211 0.298412
    26 -0.666712 0.565948 -0.425195 0.173504 -0.600378 -0.102046
    27 1.311736 0.000006 0.000004 0.011314 -1.063587 -0.010767
    28 1.132875 -0.000003 -0.000005 0.320368 -1.064909 -0.313162
    29 -0.835869 -0.375753 -0.250998 -0.146165 -0.620093 0.007640
    30 1.303124 0.000019 0.000004 -0.056349 -1.039629 0.064538
    31 1.094648 -0.000011 -0.000003 -0.045810 -0.990088 0.032227
    32 -1.144743 -1.304737 0.171518 -0.636951 -0.665178 0.206094
    33 1.052849 0.000000 -0.000004 -0.005535 -1.193798 6.275566
    34 0.916342 -0.000031 0.000001 0.018043 -1.082001 -0.009234
    35 -8.146656 -18.326564 -9.180493 1.121479 0.087073 -1.617668
    36 -0.117880 -0.102734 -0.180849 0.000013 0.017066 0.000000
    37 4.409983 -0.000034 0.000004 0.000000 0.000000 0.000000
    38 -3.459356 1.711287 -0.541797 -0.100884 -0.653009 3.397904
    39 -1.410028 -0.000005 -0.000014 0.000004 0.000001 -0.624543
    40 -0.993008 0.000010 -0.000011 0.000012 -0.000006 -0.621799
    41 -1.077398 1.571280 0.162236 0.235626 -0.695575 3.154939
    42 -1.337713 0.000003 -0.000002 6.149948 -1.085062 0.029312
    43 -1.180471 0.000072 0.000002 0.107269 -1.063972 -0.087675
    44 -0.719599 0.565946 0.238754 -0.126645 -1.016642 -3.089825
    45 -1.311414 -0.000009 -0.000267 0.002810 -0.913979 0.001501
    46 -1.132872 0.000005 -0.000066 0.007767 -1.245445 0.019844
    47 -1.239075 -1.304744 -0.314278 -0.961626 -0.681557 -2.647719
    48 -1.052850 0.000005 -0.000004 -0.099881 -1.230800 6.174836
    49 -0.916342 0.000033 0.000003 0.134983 -1.374561 -0.113492
    50 -0.900585 -0.375762 0.090056 -0.471652 -0.865387 -2.883246
    51 -1.303123 -0.000014 0.000008 -0.004266 -1.145373 -0.000993
    52 -1.094650 0.000007 0.000003 0.208318 -1.178367 -0.203597
    53 0.000000 0.000000 0.000000 0.000000 0.000000 0.000000
    54 0.000000 0.000000 0.000000 0.000000 0.000000 -1.570796
    55 0.000000 0.000000 0.000000 0.000000 0.000000 -1.570796
    56 -2.000000 0.000000 0.000000 -1.570796 0.000000 0.174533
    57 -1.500000 0.000002 0.000000 -1.570796 0.000000 0.000000
    58 0.000000 0.500000 0.000000 -1.570796 0.261799 0.000000
    59 -0.000001 0.000000 0.000000 -3.141593 0.174533 0.000000
    60 0.000000 0.000000 -0.000001 -3.141593 0.174533 0.174533
    61 0.000000 0.000000 0.000000 -3.141593 0.349066 -0.174533
    62 0.000000 0.000000 0.000000 -1.570796 0.000000 0.000000
    63 0.000000 0.000000 0.000000 -1.570796 0.000000 0.000000
    64 0.000000 0.000000 0.000000 -1.570796 0.000000 0.000000
    65 0.000000 0.000000 0.000002 -1.570796 0.000000 0.000000
    66 0.000000 0.000000 0.000000 -1.570796 0.000000 0.000000
    67 0.000000 0.000001 0.000000 -1.570796 0.000000 0.000000
    68 0.000000 0.000000 0.000000 -1.570796 0.000000 0.000000
    69 0.000000 0.000000 0.000000 -1.570796 0.000000 0.000000
    70 0.000000 0.000000 0.000000 -1.570796 0.000000 0.000000
    71 0.000000 0.000000 0.000000 -1.570796 0.000000 0.000000
    72 0.000000 0.000000 0.000000 -1.570796 0.000000 0.000000
    73 0.000000 0.000000 0.000000 -1.570796 0.000000 0.000000
    74 -2.000000 0.000000 0.000000 1.570796 0.000000 0.174533
    75 -1.500000 -0.000001 -0.250000 1.570796 0.000000 0.000000
    76 -1.000000 0.250000 0.500000 1.570796 0.000000 0.000000
    77 0.000000 0.000000 0.000000 2.094395 0.000000 -3.141593
    78 0.000000 0.000000 0.000000 2.094395 0.000000 -3.141593
    79 0.000000 -0.200001 -0.200000 1.745329 0.000000 -3.141593
    80 0.000000 -0.000001 -0.000002 1.570796 0.000000 3.141593
    81 0.000000 0.000000 0.000000 1.570796 0.000000 -3.141593
    82 0.000000 0.000000 -0.000002 1.570796 0.000000 -3.141593
    83 0.000000 0.000000 0.000000 1.570796 0.000000 3.141593
    84 -0.000002 0.000000 0.000000 1.570796 0.000000 3.141593
    85 0.000000 0.000000 0.000000 1.570796 0.000000 3.141593
    86 0.000000 0.000000 0.000000 1.570796 0.000000 3.141593
    87 0.000000 0.000000 0.000000 1.570796 0.000000 -3.141593
    88 0.000000 0.000000 0.000000 1.570796 0.000000 -3.141593
    89 0.000000 0.000000 0.000000 1.570796 0.000000 3.141593
    90 0.000000 0.000000 0.000000 1.570796 0.000000 -3.141593
    91 0.000000 0.000000 0.000000 1.570796 0.000000 -3.141593
  time 6
    0 0.000000 0.000000 0.000000 0.000000 0.000000 -0.000007
    1 0.000000 2.709942 -10.591393 0.000000 -1.570796 1.570796
    2 3.500857 9.013945 -0.640573 0.000000 -1.570796 0.000000
    3 -2.289403 -1.496114 0.973094 0.000000 0.000000 0.000000
    4 4.409996 0.000005 -0.000003 0.127785 -0.096463 0.279288
    5 10.079981 -0.000003 -0.000001 -0.000002 -0.000003 -0.527959
    6 0.000000 -0.000001 0.000000 -0.162025 0.000005 0.000001
    7 3.359990 0.000014 -0.000007 -0.324032 0.000000 0.000003
    8 6.719987 0.000030 -0.000015 -0.486087 -0.000002 0.000001
    9 3.500862 -5.725745 -0.640568 0.000000 -1.570795 3.141592
    10 -2.186730 3.179637 -0.996149 0.000000 0.000000 0.000000
    11 4.409998 -0.000001 0.000004 -0.304137 0.200272 0.364709
    12 10.079982 0.000014 0.000025 0.000004 0.000046 -0.686572
    13 0.000001 0.000004 0.000000 0.195304 -0.000001 0.000010
    14 3.359994 0.000032 0.000015 0.390608 -0.000007 0.000004
    15 6.719987 0.000057 0.000028 0.585888 0.000003 0.000003
    16 0.000000 0.000000 0.000000 1.567452 -0.003344 -3.136163
    17 9.943424 -18.429354 -9.493193 2.005452 0.075249 -1.680335
    18 -0.118055 -0.108981 0.513327 -0.000047 -0.086523 0.000009
    19 4.409994 -0.000012 0.000012 0.000000 0.000000 0.000000
    20 -3.422661 1.711283 0.470872 -0.158553 -0.546205 0.255266
    21 1.410028 0.000010 0.000007 0.000006 0.000009 -0.702258
    22 0.993011 -0.000001 0.000006 0.000001 -0.000006 -0.476721
    23 -1.022532 1.571291 -0.406268 0.406365 -0.581277 -0.177468
    24 1.337718 0.000005 0.000002 -0.000184 -1.105719 6.277251
    25 1.180473 -0.000093 -0.000003 -0.396841 -1.137544 0.410997
    26 -0.666712 0.565948 -0.425195 0.193554 -0.710929 -0.129526
    27 1.311736 0.000006 0.000004 0.015434 -1.175661 -0.014694
    28 1.132875 -0.000003 -0.000005 0.426086 -1.180578 -0.425368
    29 -0.835869 -0.375753 -0.250998 -0.162884 -0.727054 0.030327
    30 1.303124 0.000019 0.000004 -0.074687 -1.147560 0.084111
    31 1.094648 -0.000011 -0.000003 -0.049117 -1.097948 0.032359
    32 -1.144743 -1.304737 0.171518 -0.702508 -0.747480 0.295027
    33 1.052849 0.000000 -0.000004 -0.007739 -1.295397 6.275853
    34 0.916342 -0.000031 0.000001 0.014498 -1.183664 -0.005209
    35 -7.970869 -18.307032 -9.051583 1.073331 0.020632 -1.612332
    36 -0.117880 -0.102734 -0.180849 0.000013 0.017066 0.000000
    37 4.409983 -0.000034 0.000004 0.000000 0.000000 0.000000
    38 -3.459356 1.711287 -0.541797 -0.056937 -0.656305 3.327146
    39 -1.410028 -0.000005 -0.000014 0.000004 0.000001 -0.680400
    40 -0.993008 0.000010 -0.000011 0.000012 -0.000006 -0.677658
    41 -1.077398 1.571280 0.162236 0.258193 -0.778953 3.124761
    42 -1.337713 0.000003 -0.000002 6.163573 -1.227830 0.030270
    43 -1.180471 0.000072 0.000002 0.129728 -1.149459 -0.108384
    44 -0.719599 0.565946 0.238754 -0.114061 -1.094753 -3.083545
    45 -1.311414 -0.000009 -0.000267 0.002810 -0.992129 0.001501
    46 -1.132872 0.000005 -0.000066 0.005853 -1.385483 0.025563
    47 -1.239075 -1.304744 -0.314278 -1.052806 -0.740177 -2.522523
    48 -1.052850 0.000005 -0.000004 -0.134533 -1.303770 6.195633
    49 -0.916342 0.000033 0.000003 0.106487 -1.448591 -0.086891
    50 -0.900585 -0.375762 0.090056 -0.531578 -0.939152 -2.812958
    51 -1.303123 -0.000014 0.000008 -0.004266 -1.204943 -0.000993
    52 -1.094650 0.000007 0.000003 0.277517 -1.273118 -0.274330
    53 0.000000 0.000000 0.000000 0.000000 0.000000 0.000000
    54 0.000000 0.000000 0.000000 0.000000 0.000000 -1.570796
    55 0.000000 0.000000 0.000000 0.000000 0.000000 -1.570796
    56 -2.000000 0.000000 0.000000 -1.570796 0.000000 0.174533
    57 -1.500000 0.000002 0.000000 -1.570796 0.000000 0.000000
    58 0.000000 0.500000 0.000000 -1.570796 0.261799 0.000000
    59 -0.000001 0.000000 0.000000 -3.141593 0.174533 0.000000
    60 0.000000 0.000000 -0.000001 -3.141593 0.174533 0.174533
    61 0.000000 0.000000 0.000000 -3.141593 0.349066 -0.174533
    62 0.000000 0.000000 0.000000 -1.570796 0.000000 0.000000
    63 0.000000 0.000000 0.000000 -1.570796 0.000000 0.000000
    64 0.000000 0.000000 0.000000 -1.570796 0.000000 0.000000
    65 0.000000 0.000000 0.000002 -1.570796 0.000000 0.000000
    66 0.000000 0.000000 0.000000 -1.570796 0.000000 0.000000
    67 0.000000 0.000001 0.000000 -1.570796 0.000000 0.000000
    68 0.000000 0.000000 0.000000 -1.570796 0.000000 0.000000
    69 0.000000 0.000000 0.000000 -1.570796 0.000000 0.000000
    70 0.000000 0.000000 0.000000 -1.570796 0.000000 0.000000
    71 0.000000 0.000000 0.000000 -1.570796 0.000000 0.000000
    72 0.000000 0.000000 0.000000 -1.570796 0.000000 0.000000
    73 0.000000 0.000000 0.000000 -1.570796 0.000000 0.000000
    74 -2.000000 0.000000 0.000000 1.570796 0.000000 0.174533
    75 -1.500000 -0.000001 -0.250000 1.570796 0.000000 0.000000
    76 -1.000000 0.250000 0.500000 1.570796 0.000000 0.000000
    77 0.000000 0.000000 0.000000 2.094395 0.000000 -3.141593
    78 0.000000 0.000000 0.000000 2.094395 0.000000 -3.141593
    79 0.000000 -0.200001 -0.200000 1.745329 0.000000 -3.141593
    80 0.000000 -0.000001 -0.000002 1.570796 0.000000 3.141593
    81 0.000000 0.000000 0.000000 1.570796 0.000000 -3.141593
    82 0.000000 0.000000 -0.000002 1.570796 0.000000 -3.141593
    83 0.000000 0.000000 0.000000 1.570796 0.000000 3.141593
    84 -0.000002 0.000000 0.000000 1.570796 0.000000 3.141593
    85 0.000000 0.000000 0.000000 1.570796 0.000000 3.141593
    86 0.000000 0.000000 0.000000 1.570796 0.000000 3.141593
    87 0.000000 0.000000 0.000000 1.570796 0.000000 -3.141593
    88 0.000000 0.000000 0.000000 1.570796 0.000000 -3.141593
    89 0.000000 0.000000 0.000000 1.570796 0.000000 3.141593
    90 0.000000 0.000000 0.000000 1.570796 0.000000 -3.141593
    91 0.000000 0.000000 0.000000 1.570796 0.000000 -3.141593
  time 7
    0 0.000000 0.000000 0.000000 0.000000 0.000000 -0.000007
    1 0.000000 2.709942 -10.591393 0.000000 -1.570796 1.570796
    2 3.500857 9.013945 -0.640573 0.000000 -1.570796 0.000000
    3 -2.289403 -1.496114 0.973094 0.000000 0.000000 0.000000
    4 4.409996 0.000005 -0.000003 0.130206 -0.094027 0.276568
    5 10.079981 -0.000003 -0.000001 -0.000002 -0.000003 -0.535728
    6 0.000000 -0.000001 0.000000 -0.177234 0.000005 0.000001
    7 3.359990 0.000014 -0.000007 -0.354423 0.000000 0.000003
    8 6.719987 0.000030 -0.000015 -0.531673 -0.000002 0.000001
    9 3.500862 -5.725745 -0.640568 0.000000 -1.570795 3.141592
    10 -2.186730 3.179637 -0.996149 0.000000 0.000000 0.000000
    11 4.409998 -0.000001 0.000004 -0.326570 0.190430 0.351557
    12 10.079982 0.000014 0.000025 0.000004 0.000046 -0.686383
    13 0.000001 0.000004 0.000000 0.207996 -0.000001 0.000010
    14 3.359994 0.000032 0.000015 0.415951 -0.000007 0.000004
    15 6.719987 0.000057 0.000028 0.623933 0.000003 0.000003
    16 0.000000 0.000000 0.000000 1.570544 -0.000252 -3.136606
    17 9.744199 -18.448886 -9.165058 2.040365 0.050640 -1.679389
    18 -0.118055 -0.108981 0.513327 -0.000047 -0.086523 0.000009
    19 4.409994 -0.000012 0.000012 0.000000 0.000000 0.000000
    20 -3.422661 1.711283 0.470872 -0.115815 -0.557555 0.175320
    21 1.410028 0.000010 0.000007 0.000006 0.000009 -0.771111
    22 0.993011 -0.000001 0.000006 0.000001 -0.000006 -0.545594
    23 -1.022532 1.571291 -0.406268 0.443961 -0.703609 -0.236599
    24 1.337718 0.000005 0.000002 -0.000184 -1.235726 6.277251
    25 1.180473 -0.000093 -0.000003 -0.498863 -1.271829 0.523581
    26 -0.666712 0.565948 -0.425195 0.213580 -0.821565 -0.157031
    27 1.311736 0.000006 0.000004 0.019457 -1.287735 -0.018526
    28 1.132875 -0.000003 -0.000005 0.531804 -1.296150 -0.537761
    29 -0.835869 -0.375753 -0.250998 -0.179590 -0.833972 0.053026
    30 1.303124 0.000019 0.000004 -0.093026 -1.255639 0.103780
    31 1.094648 -0.000011 -0.000003 -0.052425 -1.205961 0.032491
    32 -1.144743 -1.304737 0.171518 -0.768065 -0.829817 0.383987
    33 1.052849 0.000000 -0.000004 -0.009847 -1.397092 6.276141
    34 0.916342 -0.000031 0.000001 0.011049 -1.285327 -0.001088
    35 -7.838052 -18.287500 -8.973455 1.028278 -0.031870 -1.607928
    36 -0.117880 -0.102734 -0.180849 0.000013 0.017066 0.000000
    37 4.409983 -0.000034 0.000004 0.000000 0.000000 0.000000
    38 -3.459356 1.711287 -0.541797 -0.012953 -0.659587 3.256411
    39 -1.410028 -0.000005 -0.000014 0.000004 0.000001 -0.736230
    40 -0.993008 0.000010 -0.000011 0.000012 -0.000006 -0.733491
    41 -1.077398 1.571280 0.162236 0.280784 -0.862264 3.094608
    42 -1.337713 0.000003 -0.000002 6.177102 -1.370553 0.031133
    43 -1.180471 0.000072 0.000002 0.152176 -1.234945 -0.129093
    44 -0.719599 0.565946 0.238754 -0.101453 -1.172978 -3.077253
    45 -1.311414 -0.000009 -0.000267 0.002810 -1.070325 0.001501
    46 -1.132872 0.000005 -0.000066 0.003843 -1.525481 0.031282
    47 -1.239075 -1.304744 -0.314278 -1.143932 -0.798738 -2.397257
    48 -1.052850 0.000005 -0.000004 -0.169185 -1.376740 6.216430
    49 -0.916342 0.000033 0.000003 0.077991 -1.522621 -0.060289
    50 -0.900585 -0.375762 0.090056 -0.591538 -1.012950 -2.742670
    51 -1.303123 -0.000014 0.000008 -0.004266 -1.264413 -0.000993
    52 -1.094650 0.000007 0.000003 0.346716 -1.367772 -0.344968
    53 0.000000 0.000000 0.000000 0.000000 0.000000 0.000000
    54 0.000000 0.000000 0.000000 0.000000 0.000000 -1.570796
    55 0.000000 0.000000 0.000000 0.000000 0.000000 -1.570796
    56 -2.000000 0.000000 0.000000 -1.570796 0.000000 0.174533
    57 -1.500000 0.000002 0.000000 -1.570796 0.000000 0.000000
    58 0.000000 0.500000 0.000000 -1.570796 0.261799 0.000000
    59 -0.000001 0.000000 0.000000 -3.141593 0.174533 0.000000
    60 0.000000 0.000000 -0.000001 -3.141593 0.174533 0.174533
    61 0.000000 0.000000 0.000000 -3.141593 0.349066 -0.174533
    62 0.000000 0.000000 0.000000 -1.570796 0.000000 0.000000
    63 0.000000 0.000000 0.000000 -1.570796 0.000000 0.000000
    64 0.000000 0.000000 0.000000 -1.570796 0.000000 0.000000
    65 0.000000 0.000000 0.000002 -1.570796 0.000000 0.000000
    66 0.000000 0.000000 0.000000 -1.570796 0.000000 0.000000
    67 0.000000 0.000001 0.000000 -1.570796 0.000000 0.000000
    68 0.000000 0.000000 0.000000 -1.570796 0.000000 0.000000
    69 0.000000 0.000000 0.000000 -1.570796 0.000000 0.000000
    70 0.000000 0.000000 0.000000 -1.570796 0.000000 0.000000
    71 0.000000 0.000000 0.000000 -1.570796 0.000000 0.000000
    72 0.000000 0.000000 0.000000 -1.570796 0.000000 0.000000
    73 0.000000 0.000000 0.000000 -1.570796 0.000000 0.000000
    74 -2.000000 0.000000 0.000000 1.570796 0.000000 0.174533
    75 -1.500000 -0.000001 -0.250000 1.570796 0.000000 0.000000
    76 -1.000000 0.250000 0.500000 1.570796 0.000000 0.000000
    77 0.000000 0.000000 0.000000 2.094395 0.000000 -3.141593
    78 0.000000 0.000000 0.000000 2.094395 0.000000 -3.141593
    79 0.000000 -0.200001 -0.200000 1.745329 0.000000 -3.141593
    80 0.000000 -0.000001 -0.000002 1.570796 0.000000 3.141593
    81 0.000000 0.000000 0.000000 1.570796 0.000000 -3.141593
    82 0.000000 0.000000 -0.000002 1.570796 0.000000 -3.141593
    83 0.000000 0.000000 0.000000 1.570796 0.000000 3.141593
    84 -0.000002 0.000000 0.000000 1.570796 0.000000 3.141593
    85 0.000000 0.000000 0.000000 1.570796 0.000000 3.141593
    86 0.000000 0.000000 0.000000 1.570796 0.000000 3.141593
    87 0.000000 0.000000 0.000000 1.570796 0.000000 -3.141593
    88 0.000000 0.000000 0.000000 1.570796 0.000000 -3.141593
    89 0.000000 0.000000 0.000000 1.570796 0.000000 3.141593
    90 0.000000 0.000000 0.000000 1.570796 0.000000 -3.141593
    91 0.000000 0.000000 0.000000 1.570796 0.000000 -3.141593
  time 8
    0 0.000000 0.000000 0.000000 0.000000 0.000000 -0.000007
    1 0.000000 2.709942 -10.591393 0.000000 -1.570796 1.570796
    2 3.500857 9.013945 -0.640573 0.000000 -1.570796 0.000000
    3 -2.289403 -1.496114 0.973094 0.000000 0.000000 0.000000
    4 4.409996 0.000005 -0.000003 0.133288 -0.090771 0.272812
    5 10.079981 -0.000003 -0.000001 -0.000002 -0.000003 -0.536257
    6 0.000000 -0.000001 0.000000 -0.187342 0.000005 0.000001
    7 3.359990 0.000014 -0.000007 -0.374666 0.000000 0.000003
    8 6.719987 0.000030 -0.000015 -0.562038 -0.000002 0.000001
    9 3.500862 -5.725745 -0.640568 0.000000 -1.570795 3.141592
    10 -2.186730 3.179637 -0.996149 0.000000 0.000000 0.000000
    11 4.409998 -0.000001 0.000004 -0.337809 0.184928 0.344054
    12 10.079982 0.000014 0.000025 0.000004 0.000046 -0.691254
    13 0.000001 0.000004 0.000000 0.224091 -0.000001 0.000010
    14 3.359994 0.000032 0.000015 0.448172 -0.000007 0.000004
    15 6.719987 0.000057 0.000028 0.672237 0.000003 0.000003
    16 0.000000 0.000000 0.000000 1.573145 0.002349 -3.137314
    17 9.572319 -18.437167 -8.930676 2.093267 0.019213 -1.678109
    18 -0.118055 -0.108981 0.513327 -0.000047 -0.086523 0.000009
    19 4.409994 -0.000012 0.000012 0.000000 0.000000 0.000000
    20 -3.422661 1.711283 0.470872 -0.075367 -0.568286 0.099581
    21 1.410028 0.000010 0.000007 0.000006 0.000009 -0.836340
    22 0.993011 -0.000001 0.000006 0.000001 -0.000006 -0.610823
    23 -1.022532 1.571291 -0.406268 0.479543 -0.819526 -0.292595
    24 1.337718 0.000005 0.000002 -0.000184 -1.358754 6.277155
    25 1.180473 -0.000093 -0.000003 -0.595347 -1.399004 0.630171
    26 -0.666712 0.565948 -0.425195 0.232564 -0.926260 -0.183049
    27 1.311736 0.000006 0.000004 0.023097 -1.393841 -0.022262
    28 1.132875 -0.000003 -0.000005 0.631894 -1.405604 -0.643884
    29 -0.835869 -0.375753 -0.250998 -0.195422 -0.935228 0.074502
    30 1.303124 0.000019 0.000004 -0.110409 -1.357832 0.122398
    31 1.094648 -0.000011 -0.000003 -0.055565 -1.308119 0.032611
    32 -1.144743 -1.304737 0.171518 -0.830157 -0.907741 0.468173
    33 1.052849 0.000000 -0.000004 -0.011860 -1.493162 6.276620
    34 0.916342 -0.000031 0.000001 0.007887 -1.381623 0.002745
    35 -7.752112 -18.287500 -8.895328 0.994338 -0.051614 -1.605472
    36 -0.117880 -0.102734 -0.180849 0.000013 0.017066 0.000000
    37 4.409983 -0.000034 0.000004 0.000000 0.000000 0.000000
    38 -3.459356 1.711287 -0.541797 0.028681 -0.662702 3.189395
    39 -1.410028 -0.000005 -0.000014 0.000004 0.000001 -0.789150
    40 -0.993008 0.000010 -0.000011 0.000012 -0.000006 -0.786360
    41 -1.077398 1.571280 0.162236 0.302153 -0.941199 3.066037
    42 -1.337713 0.000003 -0.000002 6.189869 -1.505768 0.031995
    43 -1.180471 0.000072 0.000002 0.173436 -1.315909 -0.148712
    44 -0.719599 0.565946 0.238754 -0.089540 -1.246915 -3.071297
    45 -1.311414 -0.000009 -0.000267 0.002810 -1.144313 0.001501
    46 -1.132872 0.000005 -0.000066 3.143377 -1.483462 -3.104716
    47 -1.239075 -1.304744 -0.314278 -1.230300 -0.854202 -2.278647
    48 -1.052850 0.000005 -0.000004 -0.202029 -1.445838 6.236076
    49 -0.916342 0.000033 0.000003 3.192424 -1.548706 -3.176339
    50 -0.900585 -0.375762 0.090056 -0.648329 -1.082806 -2.676120
    51 -1.303123 -0.000014 0.000008 -0.004266 -1.320710 -0.000993
    52 -1.094650 0.000007 0.000003 0.412229 -1.457536 -0.411922
    53 0.000000 0.000000 0.000000 0.000000 0.000000 0.000000
    54 0.000000 0.000000 0.000000 0.000000 0.000000 -1.570796
    55 0.000000 0.000000 0.000000 0.000000 0.000000 -1.570796
    56 -2.000000 0.000000 0.000000 -1.570796 0.000000 0.174533
    57 -1.500000 0.000002 0.000000 -1.570796 0.000000 0.000000
    58 0.000000 0.500000 0.000000 -1.570796 0.261799 0.000000
    59 -0.000001 0.000000 0.000000 -3.141593 0.174533 0.000000
    60 0.000000 0.000000 -0.000001 -3.141593 0.174533 0.174533
    61 0.000000 0.000000 0.000000 -3.141593 0.349066 -0.174533
    62 0.000000 0.000000 0.000000 -1.570796 0.000000 0.000000
    63 0.000000 0.000000 0.000000 -1.570796 0.000000 0.000000
    64 0.000000 0.000000 0.000000 -1.570796 0.000000 0.000000
    65 0.000000 0.000000 0.000002 -1.570796 0.000000 0.000000
    66 0.000000 0.000000 0.000000 -1.570796 0.000000 0.000000
    67 0.000000 0.000001 0.000000 -1.570796 0.000000 0.000000
    68 0.000000 0.000000 0.000000 -1.570796 0.000000 0.000000
    69 0.000000 0.000000 0.000000 -1.570796 0.000000 0.000000
    70 0.000000 0.000000 0.000000 -1.570796 0.000000 0.000000
    71 0.000000 0.000000 0.000000 -1.570796 0.000000 0.000000
    72 0.000000 0.000000 0.000000 -1.570796 0.000000 0.000000
    73 0.000000 0.000000 0.000000 -1.570796 0.000000 0.000000
    74 -2.000000 0.000000 0.000000 1.570796 0.000000 0.174533
    75 -1.500000 -0.000001 -0.250000 1.570796 0.000000 0.000000
    76 -1.000000 0.250000 0.500000 1.570796 0.000000 0.000000
    77 0.000000 0.000000 0.000000 2.094395 0.000000 -3.141593
    78 0.000000 0.000000 0.000000 2.094395 0.000000 -3.141593
    79 0.000000 -0.200001 -0.200000 1.745329 0.000000 -3.141593
    80 0.000000 -0.000001 -0.000002 1.570796 0.000000 3.141593
    81 0.000000 0.000000 0.000000 1.570796 0.000000 -3.141593
    82 0.000000 0.000000 -0.000002 1.570796 0.000000 -3.141593
    83 0.000000 0.000000 0.000000 1.570796 0.000000 3.141593
    84 -0.000002 0.000000 0.000000 1.570796 0.000000 3.141593
    85 0.000000 0.000000 0.000000 1.570796 0.000000 3.141593
    86 0.000000 0.000000 0.000000 1.570796 0.000000 3.141593
    87 0.000000 0.000000 0.000000 1.570796 0.000000 -3.141593
    88 0.000000 0.000000 0.000000 1.570796 0.000000 -3.141593
    89 0.000000 0.000000 0.000000 1.570796 0.000000 3.141593
    90 0.000000 0.000000 0.000000 1.570796 0.000000 -3.141593
    91 0.000000 0.000000 0.000000 1.570796 0.000000 -3.141593
  time 9
    0 0.000000 0.000000 0.000000 0.000000 0.000000 -0.000007
    1 0.000000 2.709942 -10.591393 0.000000 -1.570796 1.570796
    2 3.500857 9.013945 -0.640573 0.000000 -1.570796 0.000000
    3 -2.289403 -1.496114 0.973094 0.000000 0.000000 0.000000
    4 4.409996 0.000005 -0.000003 0.133875 -0.090146 0.271991
    5 10.079981 -0.000003 -0.000001 -0.000002 -0.000003 -0.536733
    6 0.000000 -0.000001 0.000000 -0.195597 0.000005 0.000001
    7 3.359990 0.000014 -0.000007 -0.391149 0.000000 0.000003
    8 6.719987 0.000030 -0.000015 -0.586802 -0.000002 0.000001
    9 3.500862 -5.725745 -0.640568 0.000000 -1.570795 3.141592
    10 -2.186730 3.179637 -0.996149 0.000000 0.000000 0.000000
    11 4.409998 -0.000001 0.000004 -0.343921 0.181636 0.339232
    12 10.079982 0.000014 0.000025 0.000004 0.000046 -0.694659
    13 0.000001 0.000004 0.000000 0.237478 -0.000001 0.000010
    14 3.359994 0.000032 0.000015 0.474922 -0.000007 0.000004
    15 6.719987 0.000057 0.000028 0.712391 0.000003 0.000003
    16 0.000000 0.000000 0.000000 1.574284 0.003488 -3.138116
    17 9.447315 -18.429354 -8.805672 2.140186 0.000146 -1.677386
    18 -0.118055 -0.108981 0.513327 -0.000047 -0.086523 0.000009
    19 4.409994 -0.000012 0.000012 0.000000 0.000000 0.000000
    20 -3.422661 1.711283 0.470872 -0.039462 -0.577820 0.032356
    21 1.410028 0.000010 0.000007 0.000006 0.000009 -0.894262
    22 0.993011 -0.000001 0.000006 0.000001 -0.000006 -0.668764
    23 -1.022532 1.571291 -0.406268 0.511147 -0.922377 -0.342290
    24 1.337718 0.000005 0.000002 -0.000184 -1.468075 6.277251
    25 1.180473 -0.000093 -0.000003 -0.681132 -1.511770 0.724959
    26 -0.666712 0.565948 -0.425195 0.249402 -1.019199 -0.206168
    27 1.311736 0.000006 0.000004 0.026738 -1.488109 -0.025424
    28 1.132875 -0.000003 -0.000005 0.720728 -1.502677 -0.738309
    29 -0.835869 -0.375753 -0.250998 -0.209468 -1.025115 0.093582
    30 1.303124 0.000019 0.000004 -0.125882 -1.448599 0.138820
    31 1.094648 -0.000011 -0.000003 -0.058345 -1.398825 0.032719
    32 -1.144743 -1.304737 0.171518 -0.885264 -0.976977 0.542970
    33 1.052849 0.000000 -0.000004 3.127636 -1.562818 3.135603
    34 0.916342 -0.000031 0.000001 0.004917 -1.467083 0.006003
    35 -7.728674 -18.287500 -8.879703 0.961282 -0.051835 -1.604201
    36 -0.117880 -0.102734 -0.180849 0.000013 0.017066 0.000000
    37 4.409983 -0.000034 0.000004 0.000000 0.000000 0.000000
    38 -3.459356 1.711287 -0.541797 0.065653 -0.665498 3.129883
    39 -1.410028 -0.000005 -0.000014 0.000004 0.000001 -0.836116
    40 -0.993008 0.000010 -0.000011 0.000012 -0.000006 -0.833355
    41 -1.077398 1.571280 0.162236 0.321112 -1.011315 3.040665
    42 -1.337713 0.000003 -0.000002 3.060131 -1.515624 -3.108549
    43 -1.180471 0.000072 0.000002 0.192324 -1.387780 -0.166126
    44 -0.719599 0.565946 0.238754 -0.078970 -1.312659 -3.065999
    45 -1.311414 -0.000009 -0.000267 0.002810 -1.210070 0.001501
    46 -1.132872 0.000005 -0.000066 3.141846 -1.365671 -3.099855
    47 -1.239075 -1.304744 -0.314278 -1.306912 -0.903501 -2.173347
    48 -1.052850 0.000005 -0.000004 -0.231160 -1.507192 6.253615
    49 -0.916342 0.000033 0.000003 3.168552 -1.486446 -3.153947
    50 -0.900585 -0.375762 0.090056 -0.698727 -1.144843 -2.617025
    51 -1.303123 -0.000014 0.000008 -0.004266 -1.370763 -0.000993
    52 -1.094650 0.000007 0.000003 0.470462 -1.536942 -0.471417
    53 0.000000 0.000000 0.000000 0.000000 0.000000 0.000000
    54 0.000000 0.000000 0.000000 0.000000 0.000000 -1.570796
    55 0.000000 0.000000 0.000000 0.000000 0.000000 -1.570796
    56 -2.000000 0.000000 0.000000 -1.570796 0.000000 0.174533
    57 -1.500000 0.000002 0.000000 -1.570796 0.000000 0.000000
    58 0.000000 0.500000 0.000000 -1.570796 0.261799 0.000000
    59 -0.000001 0.000000 0.000000 -3.141593 0.174533 0.000000
    60 0.000000 0.000000 -0.000001 -3.141593 0.174533 0.174533
    61 0.000000 0.000000 0.000000 -3.141593 0.349066 -0.174533
    62 0.000000 0.000000 0.000000 -1.570796 0.000000 0.000000
    63 0.000000 0.000000 0.000000 -1.570796 0.000000 0.000000
    64 0.000000 0.000000 0.000000 -1.570796 0.000000 0.000000
    65 0.000000 0.000000 0.000002 -1.570796 0.000000 0.000000
    66 0.000000 0.000000 0.000000 -1.570796 0.000000 0.000000
    67 0.000000 0.000001 0.000000 -1.570796 0.000000 0.000000
    68 0.000000 0.000000 0.000000 -1.570796 0.000000 0.000000
    69 0.000000 0.000000 0.000000 -1.570796 0.000000 0.000000
    70 0.000000 0.000000 0.000000 -1.570796 0.000000 0.000000
    71 0.000000 0.000000 0.000000 -1.570796 0.000000 0.000000
    72 0.000000 0.000000 0.000000 -1.570796 0.000000 0.000000
    73 0.000000 0.000000 0.000000 -1.570796 0.000000 0.000000
    74 -2.000000 0.000000 0.000000 1.570796 0.000000 0.174533
    75 -1.500000 -0.000001 -0.250000 1.570796 0.000000 0.000000
    76 -1.000000 0.250000 0.500000 1.570796 0.000000 0.000000
    77 0.000000 0.000000 0.000000 2.094395 0.000000 -3.141593
    78 0.000000 0.000000 0.000000 2.094395 0.000000 -3.141593
    79 0.000000 -0.200001 -0.200000 1.745329 0.000000 -3.141593
    80 0.000000 -0.000001 -0.000002 1.570796 0.000000 3.141593
    81 0.000000 0.000000 0.000000 1.570796 0.000000 -3.141593
    82 0.000000 0.000000 -0.000002 1.570796 0.000000 -3.141593
    83 0.000000 0.000000 0.000000 1.570796 0.000000 3.141593
    84 -0.000002 0.000000 0.000000 1.570796 0.000000 3.141593
    85 0.000000 0.000000 0.000000 1.570796 0.000000 3.141593
    86 0.000000 0.000000 0.000000 1.570796 0.000000 3.141593
    87 0.000000 0.000000 0.000000 1.570796 0.000000 -3.141593
    88 0.000000 0.000000 0.000000 1.570796 0.000000 -3.141593
    89 0.000000 0.000000 0.000000 1.570796 0.000000 3.141593
    90 0.000000 0.000000 0.000000 1.570796 0.000000 -3.141593
    91 0.000000 0.000000 0.000000 1.570796 0.000000 -3.141593
  time 10
    0 0.000000 0.000000 0.000000 0.000000 0.000000 -0.000007
    1 0.000000 2.709942 -10.591393 0.000000 -1.570796 1.570796
    2 3.500857 9.013945 -0.640573 0.000000 -1.570796 0.000000
    3 -2.289403 -1.496114 0.973094 0.000000 0.000000 0.000000
    4 4.409996 0.000005 -0.000003 0.132848 -0.091116 0.273157
    5 10.079981 -0.000003 -0.000001 -0.000002 -0.000003 -0.537050
    6 0.000000 -0.000001 0.000000 -0.201894 0.000005 0.000001
    7 3.359990 0.000014 -0.000007 -0.403769 0.000000 0.000003
    8 6.719987 0.000030 -0.000015 -0.605654 -0.000002 0.000001
    9 3.500862 -5.725745 -0.640568 0.000000 -1.570795 3.141592
    10 -2.186730 3.179637 -0.996149 0.000000 0.000000 0.000000
    11 4.409998 -0.000001 0.000004 -0.344660 0.180817 0.337235
    12 10.079982 0.000014 0.000025 0.000004 0.000046 -0.695463
    13 0.000001 0.000004 0.000000 0.245987 -0.000001 0.000010
    14 3.359994 0.000032 0.000015 0.491925 -0.000007 0.000004
    15 6.719987 0.000057 0.000028 0.737925 0.000003 0.000003
    16 0.000000 0.000000 0.000000 1.573469 0.002673 -3.139351
    17 9.392626 -18.429354 -8.774421 2.175729 0.006307 -1.677441
    18 -0.118055 -0.108981 0.513327 -0.000047 -0.086523 0.000009
    19 4.409994 -0.000012 0.000012 0.000000 0.000000 0.000000
    20 -3.422661 1.711283 0.470872 -0.010351 -0.585559 -0.022124
    21 1.410028 0.000010 0.000007 0.000006 0.000009 -0.941212
    22 0.993011 -0.000001 0.000006 0.000001 -0.000006 -0.715674
    23 -1.022532 1.571291 -0.406268 0.536758 -1.005787 -0.382596
    24 1.337718 0.000005 0.000002 -0.000088 -1.556412 6.277155
    25 1.180473 -0.000093 -0.000003 2.390786 -1.538172 -2.339636
    26 -0.666712 0.565948 -0.425195 0.263076 -1.094569 -0.224912
    27 1.311736 0.000006 0.000004 0.029324 -1.564281 -0.028106
    28 1.132875 -0.000003 -0.000005 -2.348572 -1.559957 2.326439
    29 -0.835869 -0.375753 -0.250998 -0.220853 -1.098014 0.109042
    30 1.303124 0.000019 0.000004 -0.138299 -1.522251 0.152378
    31 1.094648 -0.000011 -0.000003 -0.060611 -1.472429 0.032791
    32 -1.144743 -1.304737 0.171518 -0.929919 -1.033077 0.603551
    33 1.052849 0.000000 -0.000004 3.126102 -1.493495 3.135795
    34 0.916342 -0.000031 0.000001 0.002330 -1.536340 0.008687
    35 -7.740393 -18.287500 -8.895328 0.932330 -0.041150 -1.603439
    36 -0.117880 -0.102734 -0.180849 0.000013 0.017066 0.000000
    37 4.409983 -0.000034 0.000004 0.000000 0.000000 0.000000
    38 -3.459356 1.711287 -0.541797 0.095603 -0.667737 3.081659
    39 -1.410028 -0.000005 -0.000014 0.000004 0.000001 -0.874139
    40 -0.993008 0.000010 -0.000011 0.000012 -0.000006 -0.871406
    41 -1.077398 1.571280 0.162236 0.336500 -1.068103 3.020124
    42 -1.337713 0.000003 -0.000002 3.069373 -1.418311 -3.107878
    43 -1.180471 0.000072 0.000002 0.207616 -1.446035 -0.180232
    44 -0.719599 0.565946 0.238754 -0.070389 -1.365883 -3.061733
    45 -1.311414 -0.000009 -0.000267 0.002810 -1.263295 0.001501
    46 -1.132872 0.000005 -0.000066 3.140506 -1.270329 -3.095947
    47 -1.239075 -1.304744 -0.314278 -1.369035 -0.943420 -2.087978
    48 -1.052850 0.000005 -0.000004 -0.254769 -1.556771 6.267799
    49 -0.916342 0.000033 0.000003 3.149020 -1.435956 -3.135862
    50 -0.900585 -0.375762 0.090056 -0.739580 -1.195153 -2.569145
    51 -1.303123 -0.000014 0.000008 -0.004266 -1.411299 -0.001005
    52 -1.094650 0.000007 0.000003 -2.623743 -1.539867 2.621729
    53 0.000000 0.000000 0.000000 0.000000 0.000000 0.000000
    54 0.000000 0.000000 0.000000 0.000000 0.000000 -1.570796
    55 0.000000 0.000000 0.000000 0.000000 0.000000 -1.570796
    56 -2.000000 0.000000 0.000000 -1.570796 0.000000 0.174533
    57 -1.500000 0.000002 0.000000 -1.570796 0.000000 0.000000
    58 0.000000 0.500000 0.000000 -1.570796 0.261799 0.000000
    59 -0.000001 0.000000 0.000000 -3.141593 0.174533 0.000000
    60 0.000000 0.000000 -0.000001 -3.141593 0.174533 0.174533
    61 0.000000 0.000000 0.000000 -3.141593 0.349066 -0.174533
    62 0.000000 0.000000 0.000000 -1.570796 0.000000 0.000000
    63 0.000000 0.000000 0.000000 -1.570796 0.000000 0.000000
    64 0.000000 0.000000 0.000000 -1.570796 0.000000 0.000000
    65 0.000000 0.000000 0.000002 -1.570796 0.000000 0.000000
    66 0.000000 0.000000 0.000000 -1.570796 0.000000 0.000000
    67 0.000000 0.000001 0.000000 -1.570796 0.000000 0.000000
    68 0.000000 0.000000 0.000000 -1.570796 0.000000 0.000000
    69 0.000000 0.000000 0.000000 -1.570796 0.000000 0.000000
    70 0.000000 0.000000 0.000000 -1.570796 0.000000 0.000000
    71 0.000000 0.000000 0.000000 -1.570796 0.000000 0.000000
    72 0.000000 0.000000 0.000000 -1.570796 0.000000 0.000000
    73 0.000000 0.000000 0.000000 -1.570796 0.000000 0.000000
    74 -2.000000 0.000000 0.000000 1.570796 0.000000 0.174533
    75 -1.500000 -0.000001 -0.250000 1.570796 0.000000 0.000000
    76 -1.000000 0.250000 0.500000 1.570796 0.000000 0.000000
    77 0.000000 0.000000 0.000000 2.094395 0.000000 -3.141593
    78 0.000000 0.000000 0.000000 2.094395 0.000000 -3.141593
    79 0.000000 -0.200001 -0.200000 1.745329 0.000000 -3.141593
    80 0.000000 -0.000001 -0.000002 1.570796 0.000000 3.141593
    81 0.000000 0.000000 0.000000 1.570796 0.000000 -3.141593
    82 0.000000 0.000000 -0.000002 1.570796 0.000000 -3.141593
    83 0.000000 0.000000 0.000000 1.570796 0.000000 3.141593
    84 -0.000002 0.000000 0.000000 1.570796 0.000000 3.141593
    85 0.000000 0.000000 0.000000 1.570796 0.000000 3.141593
    86 0.000000 0.000000 0.000000 1.570796 0.000000 3.141593
    87 0.000000 0.000000 0.000000 1.570796 0.000000 -3.141593
    88 0.000000 0.000000 0.000000 1.570796 0.000000 -3.141593
    89 0.000000 0.000000 0.000000 1.570796 0.000000 3.141593
    90 0.000000 0.000000 0.000000 1.570796 0.000000 -3.141593
    91 0.000000 0.000000 0.000000 1.570796 0.000000 -3.141593
  time 11
    0 0.000000 0.000000 0.000000 0.000000 0.000000 -0.000007
    1 0.000000 2.709942 -10.591393 0.000000 -1.570796 1.570796
    2 3.500857 9.013945 -0.640573 0.000000 -1.570796 0.000000
    3 -2.289403 -1.496114 0.973094 0.000000 0.000000 0.000000
    4 4.409996 0.000005 -0.000003 0.131454 -0.092539 0.274841
    5 10.079981 -0.000003 -0.000001 -0.000002 -0.000003 -0.537208
    6 0.000000 -0.000001 0.000000 -0.206143 0.000005 0.000001
    7 3.359990 0.000014 -0.000007 -0.412268 0.000000 0.000003
    8 6.719987 0.000030 -0.000015 -0.618441 -0.000002 0.000001
    9 3.500862 -5.725745 -0.640568 0.000000 -1.570795 3.141592
    10 -2.186730 3.179637 -0.996149 0.000000 0.000000 0.000000
    11 4.409998 -0.000001 0.000004 -0.340339 0.182553 0.338490
    12 10.079982 0.000014 0.000025 0.000004 0.000046 -0.696267
    13 0.000001 0.000004 0.000000 0.251680 -0.000001 0.000010
    14 3.359994 0.000032 0.000015 0.503324 -0.000007 0.000004
    15 6.719987 0.000057 0.000028 0.755024 0.000003 0.000003
    16 0.000000 0.000000 0.000000 1.571839 0.001043 -3.140753
    17 9.384813 -18.429354 -8.833016 2.205368 0.025083 -1.677886
    18 -0.118055 -0.108981 0.513327 -0.000047 -0.086523 0.000009
    19 4.409994 -0.000012 0.000012 0.000000 0.000000 0.000000
    20 -3.422661 1.711283 0.470872 0.009687 -0.590883 -0.059651
    21 1.410028 0.000010 0.000007 0.000006 0.000009 -0.973486
    22 0.993011 -0.000001 0.000006 0.000001 -0.000006 -0.747968
    23 -1.022532 1.571291 -0.406268 0.554375 -1.063146 -0.410331
    24 1.337718 0.000005 0.000002 -3.141591 -1.524096 3.135755
    25 1.180473 -0.000093 -0.000003 2.342919 -1.475177 -2.286903
    26 -0.666712 0.565948 -0.425195 0.272460 -1.146471 -0.237795
    27 1.311736 0.000006 0.000004 -3.110017 -1.524643 3.111425
    28 1.132875 -0.000003 -0.000005 -2.298949 -1.505760 2.273939
    29 -0.835869 -0.375753 -0.250998 -0.228703 -1.148135 0.119672
    30 1.303124 0.000019 0.000004 2.994522 -1.568748 -2.979770
    31 1.094648 -0.000011 -0.000003 -0.062157 -1.523024 0.032862
    32 -1.144743 -1.304737 0.171518 -0.960678 -1.071697 0.645249
    33 1.052849 0.000000 -0.000004 3.125144 -1.445818 3.135795
    34 0.916342 -0.000031 0.000001 3.142128 -1.557552 -3.130709
    35 -7.763831 -18.287500 -8.930485 0.910798 -0.028209 -1.603185
    36 -0.117880 -0.102734 -0.180849 0.000013 0.017066 0.000000
    37 4.409983 -0.000034 0.000004 0.000000 0.000000 0.000000
    38 -3.459356 1.711287 -0.541797 0.116228 -0.669266 3.048486
    39 -1.410028 -0.000005 -0.000014 0.000004 0.000001 -0.900334
    40 -0.993008 0.000010 -0.000011 0.000012 -0.000006 -0.897576
    41 -1.077398 1.571280 0.162236 0.347095 -1.107253 3.005970
    42 -1.337713 0.000003 -0.000002 3.075661 -1.351348 -3.107495
    43 -1.180471 0.000072 0.000002 0.218151 -1.486154 -0.189939
    44 -0.719599 0.565946 0.238754 -0.064481 -1.402529 -3.058773
    45 -1.311414 -0.000009 -0.000267 0.002810 -1.299966 0.001501
    46 -1.132872 0.000005 -0.000066 3.139645 -1.204623 -3.093278
    47 -1.239075 -1.304744 -0.314278 -1.411778 -0.970891 -2.029231
    48 -1.052850 0.000005 -0.000004 2.870306 -1.550587 3.136195
    49 -0.916342 0.000033 0.000003 3.135716 -1.401175 -3.123327
    50 -0.900585 -0.375762 0.090056 -0.767701 -1.229728 -2.536174
    51 -1.303123 -0.000014 0.000008 -0.004266 -1.439246 -0.000993
    52 -1.094650 0.000007 0.000003 -2.591128 -1.495513 2.588582
    53 0.000000 0.000000 0.000000 0.000000 0.000000 0.000000
    54 0.000000 0.000000 0.000000 0.000000 0.000000 -1.570796
    55 0.000000 0.000000 0.000000 0.000000 0.000000 -1.570796
    56 -2.000000 0.000000 0.000000 -1.570796 0.000000 0.174533
    57 -1.500000 0.000002 0.000000 -1.570796 0.000000 0.000000
    58 0.000000 0.500000 0.000000 -1.570796 0.261799 0.000000
    59 -0.000001 0.000000 0.000000 -3.141593 0.174533 0.000000
    60 0.000000 0.000000 -0.000001 -3.141593 0.174533 0.174533
    61 0.000000 0.000000 0.000000 -3.141593 0.349066 -0.174533
    62 0.000000 0.000000 0.000000 -1.570796 0.000000 0.000000
    63 0.000000 0.000000 0.000000 -1.570796 0.000000 0.000000
    64 0.000000 0.000000 0.000000 -1.570796 0.000000 0.000000
    65 0.000000 0.000000 0.000002 -1.570796 0.000000 0.000000
    66 0.000000 0.000000 0.000000 -1.570796 0.000000 0.000000
    67 0.000000 0.000001 0.000000 -1.570796 0.000000 0.000000
    68 0.000000 0.000000 0.000000 -1.570796 0.000000 0.000000
    69 0.000000 0.000000 0.000000 -1.570796 0.000000 0.000000
    70 0.000000 0.000000 0.000000 -1.570796 0.000000 0.000000
    71 0.000000 0.000000 0.000000 -1.570796 0.000000 0.000000
    72 0.000000 0.000000 0.000000 -1.570796 0.000000 0.000000
    73 0.000000 0.000000 0.000000 -1.570796 0.000000 0.000000
    74 -2.000000 0.000000 0.000000 1.570796 0.000000 0.174533
    75 -1.500000 -0.000001 -0.250000 1.570796 0.000000 0.000000
    76 -1.000000 0.250000 0.500000 1.570796 0.000000 0.000000
    77 0.000000 0.000000 0.000000 2.094395 0.000000 -3.141593
    78 0.000000 0.000000 0.000000 2.094395 0.000000 -3.141593
    79 0.000000 -0.200001 -0.200000 1.745329 0.000000 -3.141593
    80 0.000000 -0.000001 -0.000002 1.570796 0.000000 3.141593
    81 0.000000 0.000000 0.000000 1.570796 0.000000 -3.141593
    82 0.000000 0.000000 -0.000002 1.570796 0.000000 -3.141593
    83 0.000000 0.000000 0.000000 1.570796 0.000000 3.141593
    84 -0.000002 0.000000 0.000000 1.570796 0.000000 3.141593
    85 0.000000 0.000000 0.000000 1.570796 0.000000 3.141593
    86 0.000000 0.000000 0.000000 1.570796 0.000000 3.141593
    87 0.000000 0.000000 0.000000 1.570796 0.000000 -3.141593
    88 0.000000 0.000000 0.000000 1.570796 0.000000 -3.141593
    89 0.000000 0.000000 0.000000 1.570796 0.000000 3.141593
    90 0.000000 0.000000 0.000000 1.570796 0.000000 -3.141593
    91 0.000000 0.000000 0.000000 1.570796 0.000000 -3.141593
  time 12
    0 0.000000 0.000000 0.000000 0.000000 0.000000 -0.000007
    1 0.000000 2.709942 -10.591393 0.000000 -1.570796 1.570796
    2 3.500857 9.013945 -0.640573 0.000000 -1.570796 0.000000
    3 -2.289403 -1.496114 0.973094 0.000000 0.000000 0.000000
    4 4.409996 0.000005 -0.000003 0.130940 -0.093229 0.275618
    5 10.079981 -0.000003 -0.000001 -0.000002 -0.000003 -0.537314
    6 0.000000 -0.000001 0.000000 -0.208255 0.000005 0.000001
    7 3.359990 0.000014 -0.000007 -0.416518 0.000000 0.000003
    8 6.719987 0.000030 -0.000015 -0.624777 -0.000002 0.000001
    9 3.500862 -5.725745 -0.640568 0.000000 -1.570795 3.141592
    10 -2.186730 3.179637 -0.996149 0.000000 0.000000 0.000000
    11 4.409998 -0.000001 0.000004 -0.337182 0.183847 0.339603
    12 10.079982 0.000014 0.000025 0.000004 0.000046 -0.696740
    13 0.000001 0.000004 0.000000 0.254496 -0.000001 0.000010
    14 3.359994 0.000032 0.000015 0.508986 -0.000007 0.000004
    15 6.719987 0.000057 0.000028 0.763488 0.000003 0.000003
    16 0.000000 0.000000 0.000000 1.570796 0.000000 -3.141592
    17 9.388720 -18.429354 -8.868174 2.221349 0.037515 -1.678220
    18 -0.118055 -0.108981 0.513327 -0.000047 -0.086523 0.000009
    19 4.409994 -0.000012 0.000012 0.000000 0.000000 0.000000
    20 -3.422661 1.711283 0.470872 0.018364 -0.593174 -0.075895
    21 1.410028 0.000010 0.000007 0.000006 0.000009 -0.987481
    22 0.993011 -0.000001 0.000006 0.000001 -0.000006 -0.761963
    23 -1.022532 1.571291 -0.406268 0.562009 -1.088038 -0.422346
    24 1.337718 0.000005 0.000002 -3.141591 -1.497669 3.135755
    25 1.180473 -0.000093 -0.000003 2.322271 -1.447922 -2.264049
    26 -0.666712 0.565948 -0.425195 0.276535 -1.168921 -0.243380
    27 1.311736 0.000006 0.000004 -3.109347 -1.501840 3.110658
    28 1.132875 -0.000003 -0.000005 -2.277655 -1.482347 2.251198
    29 -0.835869 -0.375753 -0.250998 -0.232083 -1.169899 0.124274
    30 1.303124 0.000019 0.000004 2.990988 -1.546786 -2.976046
    31 1.094648 -0.000011 -0.000003 -0.062804 -1.544912 0.032862
    32 -1.144743 -1.304737 0.171518 -0.974001 -1.088390 0.663341
    33 1.052849 0.000000 -0.000004 3.124857 -1.425270 3.135795
    34 0.916342 -0.000031 0.000001 3.141553 -1.536954 -3.129942
    35 -7.779457 -18.287500 -8.942204 0.900063 -0.021850 -1.603185
    36 -0.117880 -0.102734 -0.180849 0.000013 0.017066 0.000000
    37 4.409983 -0.000034 0.000004 0.000000 0.000000 0.000000
    38 -3.459356 1.711287 -0.541797 0.125169 -0.669906 3.034105
    39 -1.410028 -0.000005 -0.000014 0.000004 0.000001 -0.911659
    40 -0.993008 0.000010 -0.000011 0.000000 -0.000006 -0.908928
    41 -1.077398 1.571280 0.162236 0.351673 -1.124156 2.999846
    42 -1.337713 0.000003 -0.000002 3.078234 -1.322288 -3.107495
    43 -1.180471 0.000072 0.000002 0.222693 -1.503459 -0.194122
    44 -0.719599 0.565946 0.238754 -0.061928 -1.418387 -3.057538
    45 -1.311414 -0.000009 -0.000267 0.002810 -1.315827 0.001501
    46 -1.132872 0.000005 -0.000066 3.139358 -1.176144 -3.092134
    47 -1.239075 -1.304744 -0.314278 -1.430303 -0.982760 -2.003829
    48 -1.052850 0.000005 -0.000004 2.863452 -1.535746 3.140220
    49 -0.916342 0.000033 0.000003 3.130054 -1.386235 -3.118064
    50 -0.900585 -0.375762 0.090056 -0.779868 -1.244725 -2.521915
    51 -1.303123 -0.000014 0.000008 -0.004266 -1.451231 -0.000993
    52 -1.094650 0.000007 0.000003 -2.577326 -1.476285 2.574417
    53 0.000000 0.000000 0.000000 0.000000 0.000000 0.000000
    54 0.000000 0.000000 0.000000 0.000000 0.000000 -1.570796
    55 0.000000 0.000000 0.000000 0.000000 0.000000 -1.570796
    56 -2.000000 0.000000 0.000000 -1.570796 0.000000 0.174533
    57 -1.500000 0.000002 0.000000 -1.570796 0.000000 0.000000
    58 0.000000 0.500000 0.000000 -1.570796 0.261799 0.000000
    59 -0.000001 0.000000 0.000000 -3.141593 0.174533 0.000000
    60 0.000000 0.000000 -0.000001 -3.141593 0.174533 0.174533
    61 0.000000 0.000000 0.000000 -3.141593 0.349066 -0.174533
    62 0.000000 0.000000 0.000000 -1.570796 0.000000 0.000000
    63 0.000000 0.000000 0.000000 -1.570796 0.000000 0.000000
    64 0.000000 0.000000 0.000000 -1.570796 0.000000 0.000000
    65 0.000000 0.000000 0.000002 -1.570796 0.000000 0.000000
    66 0.000000 0.000000 0.000000 -1.570796 0.000000 0.000000
    67 0.000000 0.000001 0.000000 -1.570796 0.000000 0.000000
    68 0.000000 0.000000 0.000000 -1.570796 0.000000 0.000000
    69 0.000000 0.000000 0.000000 -1.570796 0.000000 0.000000
    70 0.000000 0.000000 0.000000 -1.570796 0.000000 0.000000
    71 0.000000 0.000000 0.000000 -1.570796 0.000000 0.000000
    72 0.000000 0.000000 0.000000 -1.570796 0.000000 0.000000
    73 0.000000 0.000000 0.000000 -1.570796 0.000000 0.000000
    74 -2.000000 0.000000 0.000000 1.570796 0.000000 0.174533
    75 -1.500000 -0.000001 -0.250000 1.570796 0.000000 0.000000
    76 -1.000000 0.250000 0.500000 1.570796 0.000000 0.000000
    77 0.000000 0.000000 0.000000 2.094395 0.000000 -3.141593
    78 0.000000 0.000000 0.000000 2.094395 0.000000 -3.141593
    79 0.000000 -0.200001 -0.200000 1.745329 0.000000 -3.141593
    80 0.000000 -0.000001 -0.000002 1.570796 0.000000 3.141593
    81 0.000000 0.000000 0.000000 1.570796 0.000000 -3.141593
    82 0.000000 0.000000 -0.000002 1.570796 0.000000 -3.141593
    83 0.000000 0.000000 0.000000 1.570796 0.000000 3.141593
    84 -0.000002 0.000000 0.000000 1.570796 0.000000 3.141593
    85 0.000000 0.000000 0.000000 1.570796 0.000000 3.141593
    86 0.000000 0.000000 0.000000 1.570796 0.000000 3.141593
    87 0.000000 0.000000 0.000000 1.570796 0.000000 -3.141593
    88 0.000000 0.000000 0.000000 1.570796 0.000000 -3.141593
    89 0.000000 0.000000 0.000000 1.570796 0.000000 3.141593
    90 0.000000 0.000000 0.000000 1.570796 0.000000 -3.141593
    91 0.000000 0.000000 0.000000 1.570796 0.000000 -3.141593
end
